%TF.GenerationSoftware,KiCad,Pcbnew,9.0.7*%
%TF.CreationDate,2026-03-25T21:09:00-07:00*%
%TF.ProjectId,Power Management Board,506f7765-7220-44d6-916e-6167656d656e,rev?*%
%TF.SameCoordinates,Original*%
%TF.FileFunction,Copper,L1,Top*%
%TF.FilePolarity,Positive*%
%FSLAX46Y46*%
G04 Gerber Fmt 4.6, Leading zero omitted, Abs format (unit mm)*
G04 Created by KiCad (PCBNEW 9.0.7) date 2026-03-25 21:09:00*
%MOMM*%
%LPD*%
G01*
G04 APERTURE LIST*
G04 Aperture macros list*
%AMRoundRect*
0 Rectangle with rounded corners*
0 $1 Rounding radius*
0 $2 $3 $4 $5 $6 $7 $8 $9 X,Y pos of 4 corners*
0 Add a 4 corners polygon primitive as box body*
4,1,4,$2,$3,$4,$5,$6,$7,$8,$9,$2,$3,0*
0 Add four circle primitives for the rounded corners*
1,1,$1+$1,$2,$3*
1,1,$1+$1,$4,$5*
1,1,$1+$1,$6,$7*
1,1,$1+$1,$8,$9*
0 Add four rect primitives between the rounded corners*
20,1,$1+$1,$2,$3,$4,$5,0*
20,1,$1+$1,$4,$5,$6,$7,0*
20,1,$1+$1,$6,$7,$8,$9,0*
20,1,$1+$1,$8,$9,$2,$3,0*%
G04 Aperture macros list end*
%TA.AperFunction,SMDPad,CuDef*%
%ADD10RoundRect,0.200000X0.275000X-0.200000X0.275000X0.200000X-0.275000X0.200000X-0.275000X-0.200000X0*%
%TD*%
%TA.AperFunction,SMDPad,CuDef*%
%ADD11RoundRect,0.200000X0.200000X0.275000X-0.200000X0.275000X-0.200000X-0.275000X0.200000X-0.275000X0*%
%TD*%
%TA.AperFunction,SMDPad,CuDef*%
%ADD12RoundRect,0.140000X-0.140000X-0.170000X0.140000X-0.170000X0.140000X0.170000X-0.140000X0.170000X0*%
%TD*%
%TA.AperFunction,SMDPad,CuDef*%
%ADD13RoundRect,0.075000X-0.300000X0.075000X-0.300000X-0.075000X0.300000X-0.075000X0.300000X0.075000X0*%
%TD*%
%TA.AperFunction,SMDPad,CuDef*%
%ADD14RoundRect,0.062500X-0.312500X0.062500X-0.312500X-0.062500X0.312500X-0.062500X0.312500X0.062500X0*%
%TD*%
%TA.AperFunction,HeatsinkPad*%
%ADD15O,1.950000X0.950000*%
%TD*%
%TA.AperFunction,HeatsinkPad*%
%ADD16O,2.150000X0.950000*%
%TD*%
%TA.AperFunction,SMDPad,CuDef*%
%ADD17RoundRect,0.140000X0.140000X0.170000X-0.140000X0.170000X-0.140000X-0.170000X0.140000X-0.170000X0*%
%TD*%
%TA.AperFunction,SMDPad,CuDef*%
%ADD18RoundRect,0.218750X0.218750X0.381250X-0.218750X0.381250X-0.218750X-0.381250X0.218750X-0.381250X0*%
%TD*%
%TA.AperFunction,SMDPad,CuDef*%
%ADD19RoundRect,0.250000X-0.300000X0.300000X-0.300000X-0.300000X0.300000X-0.300000X0.300000X0.300000X0*%
%TD*%
%TA.AperFunction,ComponentPad*%
%ADD20RoundRect,0.250000X-0.600000X-0.750000X0.600000X-0.750000X0.600000X0.750000X-0.600000X0.750000X0*%
%TD*%
%TA.AperFunction,ComponentPad*%
%ADD21O,1.700000X2.000000*%
%TD*%
%TA.AperFunction,SMDPad,CuDef*%
%ADD22RoundRect,0.087500X-0.325000X-0.087500X0.325000X-0.087500X0.325000X0.087500X-0.325000X0.087500X0*%
%TD*%
%TA.AperFunction,SMDPad,CuDef*%
%ADD23RoundRect,0.087500X-0.087500X-0.325000X0.087500X-0.325000X0.087500X0.325000X-0.087500X0.325000X0*%
%TD*%
%TA.AperFunction,HeatsinkPad*%
%ADD24C,0.500000*%
%TD*%
%TA.AperFunction,HeatsinkPad*%
%ADD25R,2.700000X2.700000*%
%TD*%
%TA.AperFunction,SMDPad,CuDef*%
%ADD26R,0.660400X0.203200*%
%TD*%
%TA.AperFunction,SMDPad,CuDef*%
%ADD27R,0.990600X1.600200*%
%TD*%
%TA.AperFunction,SMDPad,CuDef*%
%ADD28R,0.500000X2.000000*%
%TD*%
%TA.AperFunction,SMDPad,CuDef*%
%ADD29R,2.000000X1.700000*%
%TD*%
%TA.AperFunction,ViaPad*%
%ADD30C,0.600000*%
%TD*%
%TA.AperFunction,Conductor*%
%ADD31C,0.196800*%
%TD*%
%TA.AperFunction,Conductor*%
%ADD32C,0.500000*%
%TD*%
%TA.AperFunction,Conductor*%
%ADD33C,0.200000*%
%TD*%
%TA.AperFunction,Conductor*%
%ADD34C,0.100000*%
%TD*%
G04 APERTURE END LIST*
D10*
%TO.P,R5,2*%
%TO.N,GND*%
X83500000Y-68525000D03*
%TO.P,R5,1*%
%TO.N,Net-(J1-CC1)*%
X83500000Y-70175000D03*
%TD*%
%TO.P,R4,2*%
%TO.N,GND*%
X86500000Y-68525000D03*
%TO.P,R4,1*%
%TO.N,Net-(J1-CC2)*%
X86500000Y-70175000D03*
%TD*%
%TO.P,R1,2*%
%TO.N,Net-(U1-ILIM{slash}VSET)*%
X83500000Y-65350000D03*
%TO.P,R1,1*%
%TO.N,GND*%
X83500000Y-67000000D03*
%TD*%
D11*
%TO.P,R3,1*%
%TO.N,GND*%
X95325000Y-71500000D03*
%TO.P,R3,2*%
%TO.N,Net-(U1-{slash}CE)*%
X93675000Y-71500000D03*
%TD*%
D12*
%TO.P,C8,1*%
%TO.N,+5V*%
X102890000Y-67000000D03*
%TO.P,C8,2*%
%TO.N,GND*%
X103850000Y-67000000D03*
%TD*%
D13*
%TO.P,J1,A1,GND*%
%TO.N,GND*%
X85875000Y-73400000D03*
D14*
X85875000Y-73900000D03*
D13*
X85875000Y-80500000D03*
D14*
%TO.P,J1,A4,VBUS*%
%TO.N,Net-(D1-A)*%
X85875000Y-75700000D03*
%TO.P,J1,A5,CC1*%
%TO.N,Net-(J1-CC1)*%
X85875000Y-76200000D03*
%TO.P,J1,A6*%
%TO.N,N/C*%
X85875000Y-76700000D03*
%TO.P,J1,A7*%
X85875000Y-77200000D03*
%TO.P,J1,A8*%
X85875000Y-77700000D03*
%TO.P,J1,A9,VBUS*%
%TO.N,Net-(D1-A)*%
X85875000Y-78200000D03*
%TO.P,J1,A12,GND*%
%TO.N,GND*%
X85875000Y-80000000D03*
%TO.P,J1,B1,GND*%
X84625000Y-79950000D03*
%TO.P,J1,B4,VBUS*%
%TO.N,Net-(D1-A)*%
X84625000Y-78450000D03*
%TO.P,J1,B5,CC2*%
%TO.N,Net-(J1-CC2)*%
X84625000Y-77950000D03*
%TO.P,J1,B6*%
%TO.N,N/C*%
X84625000Y-77450000D03*
%TO.P,J1,B7*%
X84625000Y-76450000D03*
%TO.P,J1,B8*%
X84625000Y-75950000D03*
%TO.P,J1,B9,VBUS*%
%TO.N,Net-(D1-A)*%
X84625000Y-75450000D03*
%TO.P,J1,B12,GND*%
%TO.N,GND*%
X84625000Y-73950000D03*
D15*
%TO.P,J1,S1,SHIELD*%
%TO.N,unconnected-(J1-SHIELD-PadS1)*%
X85700000Y-72500000D03*
D16*
X82500000Y-72500000D03*
D15*
X85700000Y-81400000D03*
D16*
X82500000Y-81400000D03*
%TD*%
D12*
%TO.P,C3,1*%
%TO.N,+BATT*%
X93120000Y-73000000D03*
%TO.P,C3,2*%
%TO.N,GND*%
X94080000Y-73000000D03*
%TD*%
D17*
%TO.P,C6,1*%
%TO.N,+5V*%
X95310000Y-68650000D03*
%TO.P,C6,2*%
%TO.N,GND*%
X94350000Y-68650000D03*
%TD*%
D18*
%TO.P,L1,1,1*%
%TO.N,/SYS*%
X98912500Y-76150000D03*
%TO.P,L1,2,2*%
%TO.N,Net-(L1-Pad2)*%
X96787500Y-76150000D03*
%TD*%
D10*
%TO.P,R2,1*%
%TO.N,GND*%
X86500000Y-67000000D03*
%TO.P,R2,2*%
%TO.N,Net-(U1-ISET)*%
X86500000Y-65350000D03*
%TD*%
D11*
%TO.P,R9,1*%
%TO.N,GND*%
X102350000Y-68650000D03*
%TO.P,R9,2*%
%TO.N,Net-(U2-FB)*%
X100700000Y-68650000D03*
%TD*%
%TO.P,R10,1*%
%TO.N,GND*%
X91325000Y-70500000D03*
%TO.P,R10,2*%
%TO.N,Net-(U1-TS{slash}MR)*%
X89675000Y-70500000D03*
%TD*%
D10*
%TO.P,R7,1*%
%TO.N,GND*%
X102850000Y-78650000D03*
%TO.P,R7,2*%
%TO.N,Net-(U2-LBI)*%
X102850000Y-77000000D03*
%TD*%
D19*
%TO.P,D1,1,K*%
%TO.N,VBUS*%
X89000000Y-76600000D03*
%TO.P,D1,2,A*%
%TO.N,Net-(D1-A)*%
X89000000Y-79400000D03*
%TD*%
D20*
%TO.P,J2,1,Pin_1*%
%TO.N,+BATT*%
X94000000Y-80000000D03*
D21*
%TO.P,J2,2,Pin_2*%
%TO.N,GND*%
X96500000Y-80000000D03*
%TD*%
D22*
%TO.P,U2,1,VOUT*%
%TO.N,+5V*%
X96925000Y-71150000D03*
%TO.P,U2,2,NC*%
%TO.N,unconnected-(U2-NC-Pad2)*%
X96925000Y-71800000D03*
%TO.P,U2,3,SW*%
%TO.N,Net-(L1-Pad2)*%
X96925000Y-72450000D03*
%TO.P,U2,4,SW*%
X96925000Y-73100000D03*
D23*
%TO.P,U2,5,PGND*%
%TO.N,GND*%
X97912500Y-74087500D03*
%TO.P,U2,6,PGND*%
X98562500Y-74087500D03*
%TO.P,U2,7,PGND*%
X99212500Y-74087500D03*
%TO.P,U2,8,VBAT*%
%TO.N,/SYS*%
X99862500Y-74087500D03*
D22*
%TO.P,U2,9,LBI*%
%TO.N,Net-(U2-LBI)*%
X100850000Y-73100000D03*
%TO.P,U2,10,SYNC*%
%TO.N,GND*%
X100850000Y-72450000D03*
%TO.P,U2,11,EN*%
%TO.N,/SYS*%
X100850000Y-71800000D03*
%TO.P,U2,12,LBO*%
%TO.N,unconnected-(U2-LBO-Pad12)*%
X100850000Y-71150000D03*
D23*
%TO.P,U2,13,GND*%
%TO.N,GND*%
X99862500Y-70162500D03*
%TO.P,U2,14,FB*%
%TO.N,Net-(U2-FB)*%
X99212500Y-70162500D03*
%TO.P,U2,15,VOUT*%
%TO.N,+5V*%
X98562500Y-70162500D03*
%TO.P,U2,16,VOUT*%
X97912500Y-70162500D03*
D24*
%TO.P,U2,17,PAD*%
%TO.N,unconnected-(U2-PAD-Pad17)*%
X97787500Y-71025000D03*
X97787500Y-72125000D03*
X97787500Y-73225000D03*
X98887500Y-71025000D03*
X98887500Y-72125000D03*
D25*
X98887500Y-72125000D03*
D24*
X98887500Y-73225000D03*
X99987500Y-71025000D03*
X99987500Y-72125000D03*
X99987500Y-73225000D03*
%TD*%
D26*
%TO.P,U1,10,IN*%
%TO.N,VBUS*%
X89675000Y-73500000D03*
%TO.P,U1,1,SYS*%
%TO.N,/SYS*%
X91935600Y-73500000D03*
%TO.P,U1,5,GND*%
%TO.N,GND*%
X91935600Y-71899800D03*
%TO.P,U1,6,TS/MR*%
%TO.N,Net-(U1-TS{slash}MR)*%
X89675000Y-71899800D03*
%TO.P,U1,2,BAT*%
%TO.N,+BATT*%
X91935600Y-73099950D03*
%TO.P,U1,3,STAT2*%
%TO.N,unconnected-(U1-STAT2-Pad3)*%
X91935600Y-72699900D03*
%TO.P,U1,4,/CE*%
%TO.N,Net-(U1-{slash}CE)*%
X91935600Y-72299850D03*
%TO.P,U1,7,ILIM/VSET*%
%TO.N,Net-(U1-ILIM{slash}VSET)*%
X89675000Y-72299850D03*
%TO.P,U1,8,ISET*%
%TO.N,Net-(U1-ISET)*%
X89675000Y-72699900D03*
%TO.P,U1,9,STAT1*%
%TO.N,unconnected-(U1-STAT1-Pad9)*%
X89675000Y-73099950D03*
D27*
%TO.P,U1,11,EPAD*%
%TO.N,unconnected-(U1-EPAD-Pad11)*%
X90805300Y-72699900D03*
%TD*%
D17*
%TO.P,C7,1*%
%TO.N,+5V*%
X95310000Y-67150000D03*
%TO.P,C7,2*%
%TO.N,GND*%
X94350000Y-67150000D03*
%TD*%
D11*
%TO.P,R8,1*%
%TO.N,Net-(U2-FB)*%
X99175000Y-68650000D03*
%TO.P,R8,2*%
%TO.N,+5V*%
X97525000Y-68650000D03*
%TD*%
D10*
%TO.P,R6,1*%
%TO.N,Net-(U2-LBI)*%
X102850000Y-75300000D03*
%TO.P,R6,2*%
%TO.N,/SYS*%
X102850000Y-73650000D03*
%TD*%
D28*
%TO.P,J3,1,VBUS*%
%TO.N,+5V*%
X101400000Y-65200000D03*
%TO.P,J3,2,D-*%
%TO.N,unconnected-(J3-D--Pad2)*%
X100600000Y-65200000D03*
%TO.P,J3,3,D+*%
%TO.N,unconnected-(J3-D+-Pad3)*%
X99800000Y-65200000D03*
%TO.P,J3,4,ID*%
%TO.N,unconnected-(J3-ID-Pad4)*%
X99000000Y-65200000D03*
%TO.P,J3,5,GND*%
%TO.N,GND*%
X98200000Y-65200000D03*
D29*
%TO.P,J3,6,Shield*%
%TO.N,unconnected-(J3-Shield-Pad6)*%
X104250000Y-65100000D03*
X104250000Y-59650000D03*
X95350000Y-65100000D03*
X95350000Y-59650000D03*
%TD*%
D17*
%TO.P,C2,1*%
%TO.N,/SYS*%
X91980000Y-75000000D03*
%TO.P,C2,2*%
%TO.N,GND*%
X91020000Y-75000000D03*
%TD*%
D12*
%TO.P,C5,1*%
%TO.N,/SYS*%
X102390000Y-72150000D03*
%TO.P,C5,2*%
%TO.N,GND*%
X103350000Y-72150000D03*
%TD*%
%TO.P,C1,1*%
%TO.N,VBUS*%
X89195000Y-75000000D03*
%TO.P,C1,2*%
%TO.N,GND*%
X90155000Y-75000000D03*
%TD*%
%TO.P,C4,1*%
%TO.N,/SYS*%
X102390000Y-71150000D03*
%TO.P,C4,2*%
%TO.N,GND*%
X103350000Y-71150000D03*
%TD*%
D30*
%TO.N,GND*%
X90600000Y-75900000D03*
X85300000Y-79600000D03*
X85300000Y-74300000D03*
X97900000Y-67100000D03*
X94350000Y-67900000D03*
X92500000Y-70500000D03*
X95000000Y-73000000D03*
X101250000Y-69750000D03*
X100601000Y-76701000D03*
X85000000Y-68000000D03*
%TO.N,Net-(J1-CC2)*%
X85500000Y-71000000D03*
X83600000Y-76942184D03*
%TO.N,GND*%
X98900000Y-75000000D03*
X101600000Y-73700000D03*
%TO.N,/SYS*%
X92900000Y-75100000D03*
X97862500Y-75100000D03*
%TO.N,Net-(U2-LBI)*%
X101100000Y-75950000D03*
X100850000Y-74050000D03*
%TD*%
D31*
%TO.N,/SYS*%
X91935600Y-74955600D02*
X91980000Y-75000000D01*
X91935600Y-73500000D02*
X91935600Y-74955600D01*
%TO.N,GND*%
X92000000Y-71835400D02*
X92000000Y-71500000D01*
D32*
X103850000Y-67450000D02*
X102650000Y-68650000D01*
X103850000Y-67150000D02*
X103850000Y-67450000D01*
X102650000Y-68650000D02*
X102350000Y-68650000D01*
D33*
%TO.N,Net-(U2-LBI)*%
X101100000Y-75950000D02*
X101650000Y-75950000D01*
X102300000Y-75300000D02*
X102850000Y-75300000D01*
X101650000Y-75950000D02*
X102300000Y-75300000D01*
D32*
%TO.N,Net-(D1-A)*%
X87800000Y-78200000D02*
X86500000Y-78200000D01*
%TO.N,+5V*%
X96925000Y-70375000D02*
X97525000Y-69775000D01*
X96925000Y-71150000D02*
X96925000Y-70375000D01*
D33*
%TO.N,unconnected-(J3-Shield-Pad6)*%
X104250000Y-59650000D02*
X104250000Y-65100000D01*
X95350000Y-59650000D02*
X104250000Y-59650000D01*
X95350000Y-65100000D02*
X95350000Y-59650000D01*
D32*
%TO.N,GND*%
X90155000Y-75455000D02*
X90155000Y-75000000D01*
X91020000Y-75480000D02*
X91020000Y-75000000D01*
X90600000Y-75900000D02*
X90155000Y-75455000D01*
X90600000Y-75900000D02*
X91020000Y-75480000D01*
D33*
X85300000Y-79600000D02*
X85475000Y-79600000D01*
X85875000Y-80500000D02*
X85875000Y-80000000D01*
X85475000Y-79600000D02*
X85875000Y-80000000D01*
X84975000Y-79600000D02*
X85300000Y-79600000D01*
X84625000Y-79950000D02*
X84975000Y-79600000D01*
X85300000Y-74300000D02*
X85475000Y-74300000D01*
X85875000Y-73900000D02*
X85875000Y-73400000D01*
X85475000Y-74300000D02*
X85875000Y-73900000D01*
X84975000Y-74300000D02*
X85300000Y-74300000D01*
X84625000Y-73950000D02*
X84975000Y-74300000D01*
D32*
%TO.N,+5V*%
X97912500Y-70162500D02*
X98562500Y-70162500D01*
%TO.N,GND*%
X98200000Y-66800000D02*
X97900000Y-67100000D01*
X98200000Y-65200000D02*
X98200000Y-66800000D01*
X94350000Y-67900000D02*
X94350000Y-68650000D01*
X94350000Y-67800000D02*
X94350000Y-67900000D01*
X94350000Y-67150000D02*
X94350000Y-67800000D01*
X92500000Y-71000000D02*
X92000000Y-71500000D01*
X92500000Y-70500000D02*
X92500000Y-71000000D01*
X91325000Y-70500000D02*
X92500000Y-70500000D01*
X95325000Y-72675000D02*
X95000000Y-73000000D01*
X95325000Y-71500000D02*
X95325000Y-72675000D01*
X94080000Y-73000000D02*
X95000000Y-73000000D01*
X101250000Y-69750000D02*
X102350000Y-68650000D01*
D33*
X100850000Y-72450000D02*
X101164348Y-72450000D01*
X101600000Y-72885652D02*
X101600000Y-73700000D01*
X101164348Y-72450000D02*
X101600000Y-72885652D01*
D32*
X102550000Y-78650000D02*
X100601000Y-76701000D01*
X102850000Y-78650000D02*
X102550000Y-78650000D01*
D31*
%TO.N,Net-(U1-ISET)*%
X89675000Y-72699900D02*
X89043800Y-72699900D01*
D33*
X88500000Y-72225700D02*
X88974200Y-72699900D01*
X88974200Y-72699900D02*
X89043800Y-72699900D01*
X88500000Y-67350000D02*
X88500000Y-72225700D01*
X86500000Y-65350000D02*
X88500000Y-67350000D01*
D32*
%TO.N,VBUS*%
X89000000Y-75195000D02*
X89195000Y-75000000D01*
X89000000Y-76600000D02*
X89000000Y-75195000D01*
D33*
%TO.N,Net-(J1-CC2)*%
X84234202Y-77950000D02*
X84625000Y-77950000D01*
X83600000Y-77315798D02*
X84234202Y-77950000D01*
X83600000Y-76942184D02*
X83600000Y-77315798D01*
%TO.N,Net-(D1-A)*%
X84234202Y-75450000D02*
X84625000Y-75450000D01*
D32*
X87800000Y-78200000D02*
X89000000Y-79400000D01*
D33*
X85875000Y-75700000D02*
X85625000Y-75450000D01*
X85875000Y-78200000D02*
X85625000Y-78450000D01*
X83000000Y-77282898D02*
X83000000Y-76684202D01*
X85625000Y-75450000D02*
X84625000Y-75450000D01*
X84625000Y-78450000D02*
X84167102Y-78450000D01*
X84167102Y-78450000D02*
X83000000Y-77282898D01*
X85625000Y-78450000D02*
X84625000Y-78450000D01*
X83000000Y-76684202D02*
X84234202Y-75450000D01*
%TO.N,unconnected-(J1-SHIELD-PadS1)*%
X82500000Y-72500000D02*
X82500000Y-81400000D01*
X85700000Y-72500000D02*
X82500000Y-72500000D01*
%TO.N,Net-(J1-CC1)*%
X87000000Y-72202570D02*
X87000000Y-76000000D01*
X86521430Y-71724000D02*
X87000000Y-72202570D01*
X85224000Y-71724000D02*
X86521430Y-71724000D01*
X87000000Y-76000000D02*
X86800000Y-76200000D01*
X86800000Y-76200000D02*
X85875000Y-76200000D01*
X83500000Y-70000000D02*
X85224000Y-71724000D01*
X83500000Y-70175000D02*
X83500000Y-70000000D01*
%TO.N,Net-(U1-ILIM{slash}VSET)*%
X86988064Y-64649000D02*
X88974000Y-66634936D01*
X83500000Y-65350000D02*
X84201000Y-64649000D01*
X84201000Y-64649000D02*
X86988064Y-64649000D01*
D32*
%TO.N,GND*%
X84000000Y-67000000D02*
X83500000Y-67000000D01*
X85000000Y-68000000D02*
X84000000Y-67000000D01*
X85000000Y-68000000D02*
X86000000Y-67000000D01*
X86000000Y-67000000D02*
X86500000Y-67000000D01*
X84475000Y-68525000D02*
X85000000Y-68000000D01*
X85000000Y-68000000D02*
X85525000Y-68525000D01*
X83500000Y-68525000D02*
X84475000Y-68525000D01*
X85525000Y-68525000D02*
X86500000Y-68525000D01*
%TO.N,+BATT*%
X94000000Y-75137925D02*
X93120000Y-74257925D01*
X94000000Y-80000000D02*
X94000000Y-75137925D01*
D33*
%TO.N,Net-(J1-CC2)*%
X86325000Y-70175000D02*
X85500000Y-71000000D01*
X86500000Y-70175000D02*
X86325000Y-70175000D01*
D32*
%TO.N,GND*%
X99862500Y-70162500D02*
X100837500Y-70162500D01*
D33*
X103850000Y-67000000D02*
X103850000Y-67150000D01*
D32*
X103350000Y-71150000D02*
X103350000Y-72150000D01*
D33*
X98562500Y-74087500D02*
X99212500Y-74087500D01*
X98562500Y-74087500D02*
X98562500Y-74662500D01*
X97912500Y-74087500D02*
X98562500Y-74087500D01*
D32*
X100837500Y-70162500D02*
X101250000Y-69750000D01*
X103350000Y-71150000D02*
X103350000Y-69650000D01*
X103350000Y-69650000D02*
X102350000Y-68650000D01*
D33*
X98562500Y-74662500D02*
X98900000Y-75000000D01*
D32*
%TO.N,/SYS*%
X102390000Y-72150000D02*
X102390000Y-71150000D01*
X99862500Y-75200000D02*
X101300000Y-75200000D01*
X101740000Y-71800000D02*
X102390000Y-71150000D01*
X102850000Y-73650000D02*
X102390000Y-73190000D01*
X100850000Y-71800000D02*
X101740000Y-71800000D01*
X101300000Y-75200000D02*
X102850000Y-73650000D01*
X98912500Y-76150000D02*
X97862500Y-75100000D01*
X99862500Y-74087500D02*
X99862500Y-75200000D01*
X92900000Y-75100000D02*
X92080000Y-75100000D01*
X102390000Y-73190000D02*
X102390000Y-72150000D01*
X92080000Y-75100000D02*
X91980000Y-75000000D01*
X99862500Y-75200000D02*
X98912500Y-76150000D01*
%TO.N,+BATT*%
X93120000Y-73000000D02*
X93120000Y-74257925D01*
%TO.N,+5V*%
X97525000Y-68650000D02*
X97525000Y-69775000D01*
X99175000Y-67000000D02*
X100800000Y-67000000D01*
X95310000Y-68650000D02*
X95310000Y-67150000D01*
X101400000Y-66400000D02*
X101400000Y-65200000D01*
X102000000Y-67000000D02*
X101400000Y-66400000D01*
X97525000Y-69775000D02*
X97912500Y-70162500D01*
X97525000Y-68650000D02*
X99175000Y-67000000D01*
X100800000Y-67000000D02*
X101400000Y-66400000D01*
X97525000Y-68650000D02*
X95310000Y-68650000D01*
%TO.N,Net-(L1-Pad2)*%
X96787500Y-76150000D02*
X96787500Y-73237500D01*
X96925000Y-73100000D02*
X96925000Y-72450000D01*
X96787500Y-73237500D02*
X96925000Y-73100000D01*
D34*
%TO.N,Net-(U1-{slash}CE)*%
X91935600Y-72299850D02*
X92400150Y-72299850D01*
X93200000Y-71500000D02*
X93675000Y-71500000D01*
X92400150Y-72299850D02*
X93200000Y-71500000D01*
D33*
%TO.N,Net-(U2-LBI)*%
X100850000Y-74050000D02*
X100850000Y-73100000D01*
X102850000Y-75300000D02*
X102850000Y-77000000D01*
%TO.N,Net-(U2-FB)*%
X99212500Y-70162500D02*
X99212500Y-68687500D01*
X99175000Y-68650000D02*
X100700000Y-68650000D01*
X99212500Y-68687500D02*
X99175000Y-68650000D01*
D31*
%TO.N,Net-(U1-TS{slash}MR)*%
X89675000Y-71899800D02*
X89675000Y-70500000D01*
D33*
%TO.N,unconnected-(J1-SHIELD-PadS1)*%
X82500000Y-81400000D02*
X85700000Y-81400000D01*
D32*
%TO.N,+5V*%
X102890000Y-67000000D02*
X102000000Y-67000000D01*
D31*
%TO.N,Net-(U1-ILIM{slash}VSET)*%
X89675000Y-72299850D02*
X89141250Y-72299850D01*
D33*
%TO.N,Net-(D1-A)*%
X85875000Y-78200000D02*
X86500000Y-78200000D01*
%TO.N,Net-(U1-ILIM{slash}VSET)*%
X88974000Y-72132600D02*
X89141250Y-72299850D01*
X88974000Y-66634936D02*
X88974000Y-72132600D01*
%TO.N,/SYS*%
X91980000Y-75000000D02*
X92000000Y-75000000D01*
%TD*%
%TA.AperFunction,Conductor*%
%TO.N,+BATT*%
G36*
X93244386Y-72729013D02*
G01*
X93288405Y-72771510D01*
X93300000Y-72818000D01*
X93300000Y-73288670D01*
X93281093Y-73346861D01*
X93231593Y-73382825D01*
X93189433Y-73386992D01*
X92481629Y-73303720D01*
X92426046Y-73278143D01*
X92410884Y-73260403D01*
X92408045Y-73256155D01*
X92408041Y-73256152D01*
X92342784Y-73212548D01*
X92342780Y-73212547D01*
X92285241Y-73201101D01*
X92285231Y-73201100D01*
X92285230Y-73201100D01*
X91699000Y-73201100D01*
X91684088Y-73196255D01*
X91668407Y-73196255D01*
X91655721Y-73187038D01*
X91640809Y-73182193D01*
X91631592Y-73169507D01*
X91618907Y-73160291D01*
X91614061Y-73145378D01*
X91604845Y-73132693D01*
X91600000Y-73102100D01*
X91600000Y-73097799D01*
X91618907Y-73039608D01*
X91668407Y-73003644D01*
X91698994Y-72998799D01*
X92285230Y-72998799D01*
X92342783Y-72987352D01*
X92408045Y-72943745D01*
X92449965Y-72881006D01*
X92498014Y-72843128D01*
X92515062Y-72838518D01*
X93183797Y-72720506D01*
X93244386Y-72729013D01*
G37*
%TD.AperFunction*%
%TD*%
%TA.AperFunction,Conductor*%
%TO.N,VBUS*%
G36*
X89911164Y-73419685D02*
G01*
X89956919Y-73472489D01*
X89966863Y-73541647D01*
X89964950Y-73551883D01*
X89699550Y-74701950D01*
X89691109Y-74726468D01*
X89684167Y-74741354D01*
X89677700Y-74790480D01*
X89677700Y-75104013D01*
X89669835Y-75130795D01*
X89665172Y-75158328D01*
X89660124Y-75163866D01*
X89658015Y-75171052D01*
X89636918Y-75189331D01*
X89618111Y-75209971D01*
X89608235Y-75214185D01*
X89605211Y-75216807D01*
X89585650Y-75223826D01*
X89358179Y-75284485D01*
X89288331Y-75282739D01*
X89251829Y-75263872D01*
X89198434Y-75223826D01*
X88970087Y-75052565D01*
X88928266Y-74996594D01*
X88923345Y-74926897D01*
X88926127Y-74916390D01*
X89372808Y-73487013D01*
X89411593Y-73428897D01*
X89475641Y-73400975D01*
X89491164Y-73400000D01*
X89844125Y-73400000D01*
X89911164Y-73419685D01*
G37*
%TD.AperFunction*%
%TD*%
M02*
