ISO-10303-21;
HEADER;
FILE_DESCRIPTION (( 'STEP AP214' ),
    '1' );
FILE_NAME ('Radar Enclosure - Front Panel 0.1.STEP',
    '2026-04-28T02:50:48',
    ( '' ),
    ( '' ),
    'SwSTEP 2.0',
    'SolidWorks 2025',
    '' );
FILE_SCHEMA (( 'AUTOMOTIVE_DESIGN' ));
ENDSEC;

DATA;
#1 = DIRECTION ( 'NONE',  ( -0.000000000000000000, -0.000000000000000000, -1.000000000000000000 ) ) ;
#2 = DIRECTION ( 'NONE',  ( -1.000000000000000000, 0.000000000000000000, 0.000000000000000000 ) ) ;
#3 = EDGE_CURVE ( 'NONE', #261, #320, #333, .T. ) ;
#4 = ORIENTED_EDGE ( 'NONE', *, *, #258, .F. ) ;
#5 = LINE ( 'NONE', #350, #631 ) ;
#6 = LINE ( 'NONE', #602, #219 ) ;
#7 = PRODUCT_RELATED_PRODUCT_CATEGORY ( 'part', '', ( #457 ) ) ;
#8 = ORIENTED_EDGE ( 'NONE', *, *, #283, .F. ) ;
#9 = ADVANCED_FACE ( 'NONE', ( #754 ), #636, .T. ) ;
#10 = EDGE_LOOP ( 'NONE', ( #716, #144, #361, #379 ) ) ;
#11 = VECTOR ( 'NONE', #1, 1000.000000000000000 ) ;
#12 = LINE ( 'NONE', #195, #496 ) ;
#13 = EDGE_LOOP ( 'NONE', ( #547, #198, #305, #542 ) ) ;
#14 = ORIENTED_EDGE ( 'NONE', *, *, #548, .F. ) ;
#15 = CARTESIAN_POINT ( 'NONE',  ( 16.63612175143043714, -8.432886059807744417, 0.000000000000000000 ) ) ;
#16 = EDGE_LOOP ( 'NONE', ( #735, #719 ) ) ;
#17 = EDGE_LOOP ( 'NONE', ( #604, #365, #612, #675 ) ) ;
#18 = EDGE_CURVE ( 'NONE', #26, #252, #405, .T. ) ;
#19 = VECTOR ( 'NONE', #153, 1000.000000000000000 ) ;
#20 = CARTESIAN_POINT ( 'NONE',  ( 51.63612175143043714, -8.432886059807744417, -4.000000000000000000 ) ) ;
#21 = ORIENTED_EDGE ( 'NONE', *, *, #508, .T. ) ;
#22 = ORIENTED_EDGE ( 'NONE', *, *, #215, .F. ) ;
#23 = CARTESIAN_POINT ( 'NONE',  ( 16.63612175143043714, -8.432886059807744417, 0.000000000000000000 ) ) ;
#24 = LINE ( 'NONE', #623, #92 ) ;
#25 = VERTEX_POINT ( 'NONE', #279 ) ;
#26 = VERTEX_POINT ( 'NONE', #625 ) ;
#27 = LINE ( 'NONE', #736, #126 ) ;
#28 = AXIS2_PLACEMENT_3D ( 'NONE', #768, #232, #705 ) ;
#29 = DIRECTION ( 'NONE',  ( 1.000000000000000000, 0.000000000000000000, -0.000000000000000000 ) ) ;
#30 = ORIENTED_EDGE ( 'NONE', *, *, #480, .F. ) ;
#31 = ADVANCED_FACE ( 'NONE', ( #87 ), #45, .F. ) ;
#32 = DIRECTION ( 'NONE',  ( -1.000000000000000000, 0.000000000000000000, 0.000000000000000000 ) ) ;
#33 = CARTESIAN_POINT ( 'NONE',  ( -70.30199219107646513, 37.14183384054836523, 1.269999999999999130 ) ) ;
#34 = ORIENTED_EDGE ( 'NONE', *, *, #207, .F. ) ;
#35 = MANIFOLD_SOLID_BREP ( 'Cut-Extrude8', #574 ) ;
#36 = ADVANCED_FACE ( 'NONE', ( #392 ), #397, .F. ) ;
#37 = VECTOR ( 'NONE', #751, 1000.000000000000000 ) ;
#38 = DIRECTION ( 'NONE',  ( -0.000000000000000000, 0.000000000000000000, 1.000000000000000000 ) ) ;
#39 = VERTEX_POINT ( 'NONE', #210 ) ;
#40 = EDGE_CURVE ( 'NONE', #538, #239, #336, .T. ) ;
#41 = LINE ( 'NONE', #100, #327 ) ;
#42 = PLANE ( 'NONE',  #555 ) ;
#43 = ADVANCED_FACE ( 'NONE', ( #161 ), #42, .F. ) ;
#44 = DIRECTION ( 'NONE',  ( 0.000000000000000000, -0.000000000000000000, 1.000000000000000000 ) ) ;
#45 = CYLINDRICAL_SURFACE ( 'NONE', #446, 1.000000000000000888 ) ;
#46 =( GEOMETRIC_REPRESENTATION_CONTEXT ( 3 ) GLOBAL_UNCERTAINTY_ASSIGNED_CONTEXT ( ( #745 ) ) GLOBAL_UNIT_ASSIGNED_CONTEXT ( ( #272, #319, #229 ) ) REPRESENTATION_CONTEXT ( 'NONE', 'WORKASPACE' ) );
#47 = DIRECTION ( 'NONE',  ( -0.000000000000000000, -0.000000000000000000, 1.000000000000000000 ) ) ;
#48 = CARTESIAN_POINT ( 'NONE',  ( 52.63612175143043714, -8.432886059807744417, 0.000000000000000000 ) ) ;
#49 = AXIS2_PLACEMENT_3D ( 'NONE', #300, #64, #57 ) ;
#50 = DIRECTION ( 'NONE',  ( -0.000000000000000000, -0.000000000000000000, -1.000000000000000000 ) ) ;
#51 = DIRECTION ( 'NONE',  ( -0.000000000000000000, 1.000000000000000000, -0.000000000000000000 ) ) ;
#52 = LINE ( 'NONE', #650, #512 ) ;
#53 = DIRECTION ( 'NONE',  ( -0.000000000000000000, 1.000000000000000000, -0.000000000000000000 ) ) ;
#54 = CIRCLE ( 'NONE', #362, 0.9999999999999974465 ) ;
#55 = CIRCLE ( 'NONE', #28, 2.000000000000003553 ) ;
#56 = PLANE ( 'NONE',  #667 ) ;
#57 = DIRECTION ( 'NONE',  ( -1.000000000000000000, 0.000000000000000000, 0.000000000000000000 ) ) ;
#58 = CIRCLE ( 'NONE', #465, 2.000000000000001776 ) ;
#59 = DIRECTION ( 'NONE',  ( 0.000000000000000000, 1.000000000000000000, 0.000000000000000000 ) ) ;
#60 = CARTESIAN_POINT ( 'NONE',  ( -71.57199219107647536, -37.85816615945162766, 1.269999999999999130 ) ) ;
#61 = EDGE_CURVE ( 'NONE', #260, #184, #218, .T. ) ;
#62 = DIRECTION ( 'NONE',  ( 1.000000000000000000, 0.000000000000000000, 0.000000000000000000 ) ) ;
#63 = VERTEX_POINT ( 'NONE', #629 ) ;
#64 = DIRECTION ( 'NONE',  ( 0.000000000000000000, 0.000000000000000000, -1.000000000000000000 ) ) ;
#65 = EDGE_CURVE ( 'NONE', #25, #553, #511, .T. ) ;
#66 = EDGE_CURVE ( 'NONE', #740, #239, #287, .T. ) ;
#67 = DIRECTION ( 'NONE',  ( -0.000000000000000000, 1.000000000000000000, -0.000000000000000000 ) ) ;
#68 = EDGE_LOOP ( 'NONE', ( #444, #368, #495, #183 ) ) ;
#69 = ORIENTED_EDGE ( 'NONE', *, *, #283, .T. ) ;
#70 = DIRECTION ( 'NONE',  ( -1.000000000000000000, 0.000000000000000000, 0.000000000000000000 ) ) ;
#71 = ORIENTED_EDGE ( 'NONE', *, *, #290, .F. ) ;
#72 = ORIENTED_EDGE ( 'NONE', *, *, #165, .T. ) ;
#73 = VECTOR ( 'NONE', #573, 1000.000000000000000 ) ;
#74 = DIRECTION ( 'NONE',  ( 0.000000000000000000, -0.000000000000000000, 1.000000000000000000 ) ) ;
#75 = ORIENTED_EDGE ( 'NONE', *, *, #201, .F. ) ;
#76 = ORIENTED_EDGE ( 'NONE', *, *, #263, .F. ) ;
#77 = EDGE_CURVE ( 'NONE', #729, #499, #400, .T. ) ;
#78 = CARTESIAN_POINT ( 'NONE',  ( 17.63612175143043359, -8.432886059807744417, -4.000000000000000000 ) ) ;
#79 = VERTEX_POINT ( 'NONE', #467 ) ;
#80 = EDGE_LOOP ( 'NONE', ( #724, #187 ) ) ;
#81 = DIRECTION ( 'NONE',  ( 0.000000000000000000, -0.000000000000000000, -1.000000000000000000 ) ) ;
#82 = ORIENTED_EDGE ( 'NONE', *, *, #668, .F. ) ;
#83 = ORIENTED_EDGE ( 'NONE', *, *, #3, .T. ) ;
#84 = DIRECTION ( 'NONE',  ( 0.000000000000000000, 0.000000000000000000, -1.000000000000000000 ) ) ;
#85 = DIRECTION ( 'NONE',  ( -0.000000000000000000, 1.000000000000000000, -0.000000000000000000 ) ) ;
#86 = ORIENTED_EDGE ( 'NONE', *, *, #170, .F. ) ;
#87 = FACE_OUTER_BOUND ( 'NONE', #13, .T. ) ;
#88 = EDGE_CURVE ( 'NONE', #112, #26, #103, .T. ) ;
#89 = DIRECTION ( 'NONE',  ( -0.000000000000000000, -0.000000000000000000, 1.000000000000000000 ) ) ;
#90 = ORIENTED_EDGE ( 'NONE', *, *, #236, .F. ) ;
#91 = CARTESIAN_POINT ( 'NONE',  ( -15.26495944944826988, -16.51982934323313756, 2.540000000000000036 ) ) ;
#92 = VECTOR ( 'NONE', #89, 1000.000000000000000 ) ;
#93 = VECTOR ( 'NONE', #757, 1000.000000000000000 ) ;
#94 = VECTOR ( 'NONE', #367, 1000.000000000000000 ) ;
#95 = CARTESIAN_POINT ( 'NONE',  ( 53.63612175143043714, -8.432886059807744417, -4.000000000000000000 ) ) ;
#96 =( NAMED_UNIT ( * ) PLANE_ANGLE_UNIT ( ) SI_UNIT ( $, .RADIAN. ) );
#97 = DIRECTION ( 'NONE',  ( -1.000000000000000000, -0.000000000000000000, -0.000000000000000000 ) ) ;
#98 = FILL_AREA_STYLE_COLOUR ( '', #343 ) ;
#99 = ADVANCED_FACE ( 'NONE', ( #341 ), #766, .F. ) ;
#100 = CARTESIAN_POINT ( 'NONE',  ( 75.88800780892356102, 37.14183384054836523, 1.269999999999999130 ) ) ;
#101 = DIRECTION ( 'NONE',  ( 0.000000000000000000, 0.000000000000000000, -1.000000000000000000 ) ) ;
#102 = CARTESIAN_POINT ( 'NONE',  ( -15.26495944944826988, -16.51982934323313756, 2.540000000000000036 ) ) ;
#103 = LINE ( 'NONE', #646, #585 ) ;
#104 = CARTESIAN_POINT ( 'NONE',  ( 50.63612175143043714, -8.432886059807744417, -4.000000000000000000 ) ) ;
#105 = DIRECTION ( 'NONE',  ( 0.000000000000000000, 0.000000000000000000, -1.000000000000000000 ) ) ;
#106 = DIRECTION ( 'NONE',  ( -0.000000000000000000, -0.000000000000000000, 1.000000000000000000 ) ) ;
#107 = VECTOR ( 'NONE', #410, 1000.000000000000000 ) ;
#108 = DIRECTION ( 'NONE',  ( -0.000000000000000000, -0.000000000000000000, -1.000000000000000000 ) ) ;
#109 = PRODUCT_DEFINITION ( 'UNKNOWN', '', #748, #268 ) ;
#110 = DIRECTION ( 'NONE',  ( -1.000000000000000000, 0.000000000000000000, 0.000000000000000000 ) ) ;
#111 = CARTESIAN_POINT ( 'NONE',  ( -72.84199219107645717, -37.85816615945162766, 2.540000000000000036 ) ) ;
#112 = VERTEX_POINT ( 'NONE', #761 ) ;
#113 = PLANE ( 'NONE',  #191 ) ;
#114 = PLANE ( 'NONE',  #309 ) ;
#115 = AXIS2_PLACEMENT_3D ( 'NONE', #23, #741, #559 ) ;
#116 = LINE ( 'NONE', #185, #156 ) ;
#117 = EDGE_LOOP ( 'NONE', ( #554, #141 ) ) ;
#118 = DIRECTION ( 'NONE',  ( 0.000000000000000000, 0.000000000000000000, 1.000000000000000000 ) ) ;
#119 = EDGE_CURVE ( 'NONE', #256, #260, #583, .T. ) ;
#120 = SHAPE_DEFINITION_REPRESENTATION ( #626, #238 ) ;
#121 = ORIENTED_EDGE ( 'NONE', *, *, #66, .F. ) ;
#122 = DIRECTION ( 'NONE',  ( -0.000000000000000000, 0.000000000000000000, 1.000000000000000000 ) ) ;
#123 = ORIENTED_EDGE ( 'NONE', *, *, #77, .F. ) ;
#124 = VERTEX_POINT ( 'NONE', #702 ) ;
#125 = VECTOR ( 'NONE', #53, 1000.000000000000000 ) ;
#126 = VECTOR ( 'NONE', #318, 1000.000000000000000 ) ;
#127 = LINE ( 'NONE', #298, #293 ) ;
#128 = AXIS2_PLACEMENT_3D ( 'NONE', #342, #401, #243 ) ;
#129 = ORIENTED_EDGE ( 'NONE', *, *, #398, .F. ) ;
#130 = VERTEX_POINT ( 'NONE', #225 ) ;
#131 = DIRECTION ( 'NONE',  ( -0.000000000000000000, 1.000000000000000000, -0.000000000000000000 ) ) ;
#132 = EDGE_CURVE ( 'NONE', #775, #572, #752, .T. ) ;
#133 = ORIENTED_EDGE ( 'NONE', *, *, #639, .T. ) ;
#134 = ORIENTED_EDGE ( 'NONE', *, *, #407, .F. ) ;
#135 = DIRECTION ( 'NONE',  ( -1.000000000000000000, -0.000000000000000000, -0.000000000000000000 ) ) ;
#136 = VERTEX_POINT ( 'NONE', #403 ) ;
#137 = ORIENTED_EDGE ( 'NONE', *, *, #165, .F. ) ;
#138 = CARTESIAN_POINT ( 'NONE',  ( 15.63612175143043892, -8.432886059807744417, 0.000000000000000000 ) ) ;
#139 = DIRECTION ( 'NONE',  ( 1.000000000000000000, 0.000000000000000000, 0.000000000000000000 ) ) ;
#140 = ORIENTED_EDGE ( 'NONE', *, *, #398, .T. ) ;
#141 = ORIENTED_EDGE ( 'NONE', *, *, #201, .T. ) ;
#142 = EDGE_CURVE ( 'NONE', #252, #26, #408, .T. ) ;
#143 = LINE ( 'NONE', #138, #253 ) ;
#144 = ORIENTED_EDGE ( 'NONE', *, *, #639, .F. ) ;
#145 = ORIENTED_EDGE ( 'NONE', *, *, #737, .F. ) ;
#146 = ADVANCED_FACE ( 'NONE', ( #471 ), #707, .T. ) ;
#147 = EDGE_CURVE ( 'NONE', #374, #184, #52, .T. ) ;
#148 = AXIS2_PLACEMENT_3D ( 'NONE', #593, #532, #772 ) ;
#149 = ORIENTED_EDGE ( 'NONE', *, *, #227, .F. ) ;
#150 = DIRECTION ( 'NONE',  ( -0.000000000000000000, -0.000000000000000000, -1.000000000000000000 ) ) ;
#151 = LINE ( 'NONE', #692, #154 ) ;
#152 = ORIENTED_EDGE ( 'NONE', *, *, #508, .F. ) ;
#153 = DIRECTION ( 'NONE',  ( -0.000000000000000000, -0.000000000000000000, -1.000000000000000000 ) ) ;
#154 = VECTOR ( 'NONE', #443, 1000.000000000000000 ) ;
#155 = VECTOR ( 'NONE', #645, 1000.000000000000000 ) ;
#156 = VECTOR ( 'NONE', #67, 1000.000000000000000 ) ;
#157 = DIRECTION ( 'NONE',  ( 0.000000000000000000, 0.000000000000000000, -1.000000000000000000 ) ) ;
#158 = ADVANCED_FACE ( 'NONE', ( #703 ), #114, .F. ) ;
#159 = CARTESIAN_POINT ( 'NONE',  ( -70.30199219107646513, -37.85816615945162766, 1.269999999999999130 ) ) ;
#160 = DIRECTION ( 'NONE',  ( 0.000000000000000000, 1.000000000000000000, 0.000000000000000000 ) ) ;
#161 = FACE_OUTER_BOUND ( 'NONE', #10, .T. ) ;
#162 = DIRECTION ( 'NONE',  ( 0.000000000000000000, 0.000000000000000000, -1.000000000000000000 ) ) ;
#163 = CARTESIAN_POINT ( 'NONE',  ( 51.63612175143043714, -8.432886059807744417, 0.000000000000000000 ) ) ;
#164 = DIRECTION ( 'NONE',  ( -0.000000000000000000, 1.000000000000000000, -0.000000000000000000 ) ) ;
#165 = EDGE_CURVE ( 'NONE', #671, #616, #710, .T. ) ;
#166 = CARTESIAN_POINT ( 'NONE',  ( -15.26495944944826988, -16.51982934323313756, 2.540000000000000036 ) ) ;
#167 = DIRECTION ( 'NONE',  ( 1.000000000000000000, 0.000000000000000000, 0.000000000000000000 ) ) ;
#168 = AXIS2_PLACEMENT_3D ( 'NONE', #412, #773, #235 ) ;
#169 = DIRECTION ( 'NONE',  ( -1.000000000000000000, 0.000000000000000000, 0.000000000000000000 ) ) ;
#170 = EDGE_CURVE ( 'NONE', #193, #136, #597, .T. ) ;
#171 = CARTESIAN_POINT ( 'NONE',  ( -72.84199219107645717, -37.85816615945162766, 0.000000000000000000 ) ) ;
#172 = DIRECTION ( 'NONE',  ( -1.000000000000000000, 0.000000000000000000, 0.000000000000000000 ) ) ;
#173 = VECTOR ( 'NONE', #463, 1000.000000000000000 ) ;
#174 = DIRECTION ( 'NONE',  ( 0.000000000000000000, 1.000000000000000000, 0.000000000000000000 ) ) ;
#175 = DIRECTION ( 'NONE',  ( 0.000000000000000000, -0.000000000000000000, -1.000000000000000000 ) ) ;
#176 = PLANE ( 'NONE',  #128 ) ;
#177 = FACE_BOUND ( 'NONE', #426, .T. ) ;
#178 = ORIENTED_EDGE ( 'NONE', *, *, #587, .F. ) ;
#179 = ADVANCED_FACE ( 'NONE', ( #523 ), #285, .F. ) ;
#180 = CARTESIAN_POINT ( 'NONE',  ( -71.57199219107647536, -37.85816615945162766, 1.269999999999999130 ) ) ;
#181 = APPLICATION_PROTOCOL_DEFINITION ( 'draft international standard', 'automotive_design', 1998, #308 ) ;
#182 = PLANE ( 'NONE',  #331 ) ;
#183 = ORIENTED_EDGE ( 'NONE', *, *, #317, .T. ) ;
#184 = VERTEX_POINT ( 'NONE', #104 ) ;
#185 = CARTESIAN_POINT ( 'NONE',  ( 75.88800780892356102, -37.85816615945162766, -1.555301434917121571E-16 ) ) ;
#186 = EDGE_LOOP ( 'NONE', ( #448, #743 ) ) ;
#187 = ORIENTED_EDGE ( 'NONE', *, *, #18, .F. ) ;
#188 = LINE ( 'NONE', #95, #288 ) ;
#189 = AXIS2_PLACEMENT_3D ( 'NONE', #249, #216, #742 ) ;
#190 = DIRECTION ( 'NONE',  ( -1.000000000000000000, 0.000000000000000000, 0.000000000000000000 ) ) ;
#191 = AXIS2_PLACEMENT_3D ( 'NONE', #296, #59, #74 ) ;
#192 = ORIENTED_EDGE ( 'NONE', *, *, #358, .T. ) ;
#193 = VERTEX_POINT ( 'NONE', #60 ) ;
#194 = AXIS2_PLACEMENT_3D ( 'NONE', #203, #84, #681 ) ;
#195 = CARTESIAN_POINT ( 'NONE',  ( 75.88800780892356102, 37.14183384054836523, -1.555301434917121571E-16 ) ) ;
#196 = VERTEX_POINT ( 'NONE', #294 ) ;
#197 = EDGE_LOOP ( 'NONE', ( #567, #303, #86, #133 ) ) ;
#198 = ORIENTED_EDGE ( 'NONE', *, *, #363, .F. ) ;
#199 = DIRECTION ( 'NONE',  ( -0.000000000000000000, -0.000000000000000000, -1.000000000000000000 ) ) ;
#200 = EDGE_LOOP ( 'NONE', ( #90, #679, #370, #72 ) ) ;
#201 = EDGE_CURVE ( 'NONE', #256, #374, #371, .T. ) ;
#202 = ORIENTED_EDGE ( 'NONE', *, *, #317, .F. ) ;
#203 = CARTESIAN_POINT ( 'NONE',  ( 16.63612175143043714, -8.432886059807744417, -4.000000000000000000 ) ) ;
#204 = CARTESIAN_POINT ( 'NONE',  ( 15.63612175143043892, -8.432886059807744417, -4.000000000000000000 ) ) ;
#205 = ORIENTED_EDGE ( 'NONE', *, *, #536, .T. ) ;
#206 = ORIENTED_EDGE ( 'NONE', *, *, #290, .T. ) ;
#207 = EDGE_CURVE ( 'NONE', #261, #311, #539, .T. ) ;
#208 = CARTESIAN_POINT ( 'NONE',  ( -15.26495944944826988, -16.51982934323313756, 0.000000000000000000 ) ) ;
#209 = ORIENTED_EDGE ( 'NONE', *, *, #704, .F. ) ;
#210 = CARTESIAN_POINT ( 'NONE',  ( 74.61800780892355078, -37.85816615945162766, 1.269999999999999130 ) ) ;
#211 = VECTOR ( 'NONE', #289, 1000.000000000000000 ) ;
#212 = PLANE ( 'NONE',  #490 ) ;
#213 = VERTEX_POINT ( 'NONE', #472 ) ;
#214 = CARTESIAN_POINT ( 'NONE',  ( -70.30199219107646513, -37.85816615945162766, 2.539999999999999147 ) ) ;
#215 = EDGE_CURVE ( 'NONE', #546, #479, #601, .T. ) ;
#216 = DIRECTION ( 'NONE',  ( -0.000000000000000000, -0.000000000000000000, -1.000000000000000000 ) ) ;
#217 = PRESENTATION_STYLE_ASSIGNMENT (( #576 ) ) ;
#218 = CIRCLE ( 'NONE', #767, 1.000000000000000888 ) ;
#219 = VECTOR ( 'NONE', #135, 1000.000000000000000 ) ;
#220 = FACE_BOUND ( 'NONE', #678, .T. ) ;
#221 = LINE ( 'NONE', #474, #385 ) ;
#222 = CARTESIAN_POINT ( 'NONE',  ( 51.63612175143043714, -8.432886059807744417, 0.000000000000000000 ) ) ;
#223 = DIRECTION ( 'NONE',  ( 1.000000000000000000, 0.000000000000000000, 0.000000000000000000 ) ) ;
#224 = DIRECTION ( 'NONE',  ( 0.000000000000000000, 0.000000000000000000, -1.000000000000000000 ) ) ;
#225 = CARTESIAN_POINT ( 'NONE',  ( 49.63612175143043714, -8.432886059807744417, 0.000000000000000000 ) ) ;
#226 = DIRECTION ( 'NONE',  ( 0.000000000000000000, 0.000000000000000000, -1.000000000000000000 ) ) ;
#227 = EDGE_CURVE ( 'NONE', #265, #740, #221, .T. ) ;
#228 = VECTOR ( 'NONE', #47, 1000.000000000000000 ) ;
#229 =( NAMED_UNIT ( * ) SI_UNIT ( $, .STERADIAN. ) SOLID_ANGLE_UNIT ( ) );
#230 = DIRECTION ( 'NONE',  ( 0.000000000000000000, 0.000000000000000000, -1.000000000000000000 ) ) ;
#231 = DIRECTION ( 'NONE',  ( -0.000000000000000000, -0.000000000000000000, -1.000000000000000000 ) ) ;
#232 = DIRECTION ( 'NONE',  ( 0.000000000000000000, 0.000000000000000000, -1.000000000000000000 ) ) ;
#233 = CARTESIAN_POINT ( 'NONE',  ( -71.57199219107647536, -37.85816615945162766, -1.555301434917121571E-16 ) ) ;
#234 = CARTESIAN_POINT ( 'NONE',  ( 75.88800780892356102, -37.85816615945162766, -1.555301434917121571E-16 ) ) ;
#235 = DIRECTION ( 'NONE',  ( 1.000000000000000000, 0.000000000000000000, 0.000000000000000000 ) ) ;
#236 = EDGE_CURVE ( 'NONE', #572, #616, #297, .T. ) ;
#237 = DIRECTION ( 'NONE',  ( 0.000000000000000000, 0.000000000000000000, -1.000000000000000000 ) ) ;
#238 = ADVANCED_BREP_SHAPE_REPRESENTATION ( 'Radar Enclosure - Front Panel 0.1', ( #35, #168 ), #46 ) ;
#239 = VERTEX_POINT ( 'NONE', #404 ) ;
#240 = CARTESIAN_POINT ( 'NONE',  ( 52.63612175143043714, -8.432886059807744417, -4.000000000000000000 ) ) ;
#241 = CARTESIAN_POINT ( 'NONE',  ( 16.63612175143043714, -8.432886059807744417, -4.000000000000000000 ) ) ;
#242 = ORIENTED_EDGE ( 'NONE', *, *, #40, .T. ) ;
#243 = DIRECTION ( 'NONE',  ( -1.000000000000000000, 0.000000000000000000, 0.000000000000000000 ) ) ;
#244 = AXIS2_PLACEMENT_3D ( 'NONE', #159, #461, #747 ) ;
#245 = ORIENTED_EDGE ( 'NONE', *, *, #77, .T. ) ;
#246 = CARTESIAN_POINT ( 'NONE',  ( 51.63612175143043714, -8.432886059807744417, 0.000000000000000000 ) ) ;
#247 = EDGE_LOOP ( 'NONE', ( #75, #561, #666, #377 ) ) ;
#248 = ORIENTED_EDGE ( 'NONE', *, *, #662, .T. ) ;
#249 = CARTESIAN_POINT ( 'NONE',  ( 51.63612175143043714, -8.432886059807744417, 0.000000000000000000 ) ) ;
#250 = PLANE ( 'NONE',  #655 ) ;
#251 = ORIENTED_EDGE ( 'NONE', *, *, #460, .F. ) ;
#252 = VERTEX_POINT ( 'NONE', #642 ) ;
#253 = VECTOR ( 'NONE', #622, 1000.000000000000000 ) ;
#254 = FACE_OUTER_BOUND ( 'NONE', #299, .T. ) ;
#255 = AXIS2_PLACEMENT_3D ( 'NONE', #640, #224, #340 ) ;
#256 = VERTEX_POINT ( 'NONE', #411 ) ;
#257 = ORIENTED_EDGE ( 'NONE', *, *, #533, .F. ) ;
#258 = EDGE_CURVE ( 'NONE', #261, #423, #647, .T. ) ;
#259 = DIRECTION ( 'NONE',  ( -0.000000000000000000, -0.000000000000000000, 1.000000000000000000 ) ) ;
#260 = VERTEX_POINT ( 'NONE', #240 ) ;
#261 = VERTEX_POINT ( 'NONE', #717 ) ;
#262 = FACE_OUTER_BOUND ( 'NONE', #302, .T. ) ;
#263 = EDGE_CURVE ( 'NONE', #124, #25, #5, .T. ) ;
#264 = CARTESIAN_POINT ( 'NONE',  ( 4.735040550551730121, -16.51982934323314112, 0.000000000000000000 ) ) ;
#265 = VERTEX_POINT ( 'NONE', #418 ) ;
#266 = ORIENTED_EDGE ( 'NONE', *, *, #480, .T. ) ;
#267 = LINE ( 'NONE', #504, #569 ) ;
#268 = PRODUCT_DEFINITION_CONTEXT ( 'detailed design', #709, 'design' ) ;
#269 = DIRECTION ( 'NONE',  ( -1.000000000000000000, 1.734723475976807094E-16, -0.000000000000000000 ) ) ;
#270 = EDGE_LOOP ( 'NONE', ( #417, #251 ) ) ;
#271 = SURFACE_STYLE_FILL_AREA ( #696 ) ;
#272 =( LENGTH_UNIT ( ) NAMED_UNIT ( * ) SI_UNIT ( .MILLI., .METRE. ) );
#273 = ORIENTED_EDGE ( 'NONE', *, *, #142, .T. ) ;
#274 = DIRECTION ( 'NONE',  ( -1.000000000000000000, 0.000000000000000000, -0.000000000000000000 ) ) ;
#275 = ADVANCED_FACE ( 'NONE', ( #714 ), #176, .F. ) ;
#276 = AXIS2_PLACEMENT_3D ( 'NONE', #698, #231, #172 ) ;
#277 = CYLINDRICAL_SURFACE ( 'NONE', #326, 2.000000000000001776 ) ;
#278 = CARTESIAN_POINT ( 'NONE',  ( -70.30199219107646513, 37.14183384054836523, 2.539999999999999147 ) ) ;
#279 = CARTESIAN_POINT ( 'NONE',  ( -15.26495944944826988, -16.51982934323313756, 2.540000000000000036 ) ) ;
#280 = FACE_BOUND ( 'NONE', #16, .T. ) ;
#281 = CARTESIAN_POINT ( 'NONE',  ( 16.63612175143043714, -8.432886059807744417, 0.000000000000000000 ) ) ;
#282 = DIRECTION ( 'NONE',  ( 1.000000000000000000, -1.734723475976806848E-16, 0.000000000000000000 ) ) ;
#283 = EDGE_CURVE ( 'NONE', #479, #386, #414, .T. ) ;
#284 = DIRECTION ( 'NONE',  ( 0.000000000000000000, 0.000000000000000000, -1.000000000000000000 ) ) ;
#285 = PLANE ( 'NONE',  #148 ) ;
#286 = LINE ( 'NONE', #233, #468 ) ;
#287 = LINE ( 'NONE', #519, #721 ) ;
#288 = VECTOR ( 'NONE', #682, 1000.000000000000000 ) ;
#289 = DIRECTION ( 'NONE',  ( 1.000000000000000000, 0.000000000000000000, 0.000000000000000000 ) ) ;
#290 = EDGE_CURVE ( 'NONE', #39, #729, #654, .T. ) ;
#291 = VECTOR ( 'NONE', #164, 1000.000000000000000 ) ;
#292 = CARTESIAN_POINT ( 'NONE',  ( -72.84199219107647139, 37.14183384054836523, 2.540000000000000036 ) ) ;
#293 = VECTOR ( 'NONE', #310, 1000.000000000000000 ) ;
#294 = CARTESIAN_POINT ( 'NONE',  ( 4.735040550551730121, -16.51982934323314112, 0.000000000000000000 ) ) ;
#295 = EDGE_CURVE ( 'NONE', #423, #193, #528, .T. ) ;
#296 = CARTESIAN_POINT ( 'NONE',  ( -72.84199219107645717, -37.85816615945162766, 2.540000000000000036 ) ) ;
#297 = LINE ( 'NONE', #535, #11 ) ;
#298 = CARTESIAN_POINT ( 'NONE',  ( 75.88800780892356102, -37.85816615945162766, 1.269999999999999130 ) ) ;
#299 = EDGE_LOOP ( 'NONE', ( #541, #441, #14, #550 ) ) ;
#300 = CARTESIAN_POINT ( 'NONE',  ( 16.63612175143043714, -8.432886059807744417, -4.000000000000000000 ) ) ;
#301 = LINE ( 'NONE', #434, #458 ) ;
#302 = EDGE_LOOP ( 'NONE', ( #129, #315, #484, #437 ) ) ;
#303 = ORIENTED_EDGE ( 'NONE', *, *, #406, .F. ) ;
#304 = LINE ( 'NONE', #355, #94 ) ;
#305 = ORIENTED_EDGE ( 'NONE', *, *, #147, .T. ) ;
#306 = EDGE_CURVE ( 'NONE', #507, #112, #55, .T. ) ;
#307 = EDGE_LOOP ( 'NONE', ( #556, #660, #4, #83 ) ) ;
#308 = APPLICATION_CONTEXT ( 'automotive_design' ) ;
#309 = AXIS2_PLACEMENT_3D ( 'NONE', #658, #169, #118 ) ;
#310 = DIRECTION ( 'NONE',  ( -1.000000000000000000, 0.000000000000000000, 0.000000000000000000 ) ) ;
#311 = VERTEX_POINT ( 'NONE', #580 ) ;
#312 = ORIENTED_EDGE ( 'NONE', *, *, #662, .F. ) ;
#313 = FACE_OUTER_BOUND ( 'NONE', #17, .T. ) ;
#314 = EDGE_LOOP ( 'NONE', ( #489, #683, #488, #273 ) ) ;
#315 = ORIENTED_EDGE ( 'NONE', *, *, #407, .T. ) ;
#316 = AXIS2_PLACEMENT_3D ( 'NONE', #15, #727, #190 ) ;
#317 = EDGE_CURVE ( 'NONE', #25, #265, #399, .T. ) ;
#318 = DIRECTION ( 'NONE',  ( -0.000000000000000000, -0.000000000000000000, -1.000000000000000000 ) ) ;
#319 =( NAMED_UNIT ( * ) PLANE_ANGLE_UNIT ( ) SI_UNIT ( $, .RADIAN. ) );
#320 = VERTEX_POINT ( 'NONE', #278 ) ;
#321 = ORIENTED_EDGE ( 'NONE', *, *, #236, .T. ) ;
#322 = CARTESIAN_POINT ( 'NONE',  ( -71.57199219107647536, -37.85816615945162766, 1.269999999999999130 ) ) ;
#323 = DIRECTION ( 'NONE',  ( -0.000000000000000000, -0.000000000000000000, 1.000000000000000000 ) ) ;
#324 = EDGE_LOOP ( 'NONE', ( #209, #321, #624, #738 ) ) ;
#325 = CARTESIAN_POINT ( 'NONE',  ( 51.63612175143043714, -8.432886059807744417, 0.000000000000000000 ) ) ;
#326 = AXIS2_PLACEMENT_3D ( 'NONE', #447, #323, #139 ) ;
#327 = VECTOR ( 'NONE', #760, 1000.000000000000000 ) ;
#328 = CARTESIAN_POINT ( 'NONE',  ( -71.57199219107647536, 37.14183384054836523, 1.269999999999999130 ) ) ;
#329 = ORIENTED_EDGE ( 'NONE', *, *, #40, .F. ) ;
#330 = CARTESIAN_POINT ( 'NONE',  ( 51.63612175143043714, -8.432886059807744417, -4.000000000000000000 ) ) ;
#331 = AXIS2_PLACEMENT_3D ( 'NONE', #478, #70, #669 ) ;
#332 = CARTESIAN_POINT ( 'NONE',  ( -15.26495944944826988, 3.480170656766860660, 2.540000000000000036 ) ) ;
#333 = LINE ( 'NONE', #214, #37 ) ;
#334 = STYLED_ITEM ( 'NONE', ( #217 ), #35 ) ;
#335 = DIRECTION ( 'NONE',  ( -0.000000000000000000, -1.000000000000000000, -0.000000000000000000 ) ) ;
#336 = LINE ( 'NONE', #579, #19 ) ;
#337 = FACE_OUTER_BOUND ( 'NONE', #619, .T. ) ;
#338 = DIRECTION ( 'NONE',  ( 0.000000000000000000, -0.000000000000000000, -1.000000000000000000 ) ) ;
#339 = ADVANCED_FACE ( 'NONE', ( #280, #459 ), #517, .T. ) ;
#340 = DIRECTION ( 'NONE',  ( -1.000000000000000000, 0.000000000000000000, -0.000000000000000000 ) ) ;
#341 = FACE_OUTER_BOUND ( 'NONE', #200, .T. ) ;
#342 = CARTESIAN_POINT ( 'NONE',  ( 75.88800780892356102, -37.85816615945162766, 1.269999999999999130 ) ) ;
#343 = COLOUR_RGB ( '',0.7921568627450980005, 0.8196078431372548767, 0.9333333333333333481 ) ;
#344 = VECTOR ( 'NONE', #469, 1000.000000000000000 ) ;
#345 = CARTESIAN_POINT ( 'NONE',  ( 4.735040550551730121, -16.51982934323314112, 2.540000000000000036 ) ) ;
#346 = DIRECTION ( 'NONE',  ( 0.000000000000000000, -0.000000000000000000, -1.000000000000000000 ) ) ;
#347 = CARTESIAN_POINT ( 'NONE',  ( -70.30199219107646513, -37.85816615945162766, 1.269999999999999130 ) ) ;
#348 = LINE ( 'NONE', #171, #155 ) ;
#349 = EDGE_CURVE ( 'NONE', #538, #124, #695, .T. ) ;
#350 = CARTESIAN_POINT ( 'NONE',  ( -15.26495944944826988, -16.51982934323313756, 2.540000000000000036 ) ) ;
#351 = AXIS2_PLACEMENT_3D ( 'NONE', #518, #160, #44 ) ;
#352 = FACE_OUTER_BOUND ( 'NONE', #581, .T. ) ;
#353 = AXIS2_PLACEMENT_3D ( 'NONE', #20, #676, #500 ) ;
#354 = DIRECTION ( 'NONE',  ( -0.000000000000000000, -0.000000000000000000, -1.000000000000000000 ) ) ;
#355 = CARTESIAN_POINT ( 'NONE',  ( -72.84199219107647139, 37.14183384054836523, 0.000000000000000000 ) ) ;
#356 = ORIENTED_EDGE ( 'NONE', *, *, #516, .T. ) ;
#357 = DIRECTION ( 'NONE',  ( -1.000000000000000000, 1.734723475976807094E-16, -0.000000000000000000 ) ) ;
#358 = EDGE_CURVE ( 'NONE', #136, #546, #348, .T. ) ;
#359 = CARTESIAN_POINT ( 'NONE',  ( -70.30199219107646513, -37.85816615945162766, 1.269999999999999130 ) ) ;
#360 = ORIENTED_EDGE ( 'NONE', *, *, #424, .F. ) ;
#361 = ORIENTED_EDGE ( 'NONE', *, *, #295, .F. ) ;
#362 = AXIS2_PLACEMENT_3D ( 'NONE', #501, #677, #725 ) ;
#363 = EDGE_CURVE ( 'NONE', #374, #256, #570, .T. ) ;
#364 = DIRECTION ( 'NONE',  ( -1.000000000000000000, 0.000000000000000000, 0.000000000000000000 ) ) ;
#365 = ORIENTED_EDGE ( 'NONE', *, *, #88, .T. ) ;
#366 = ORIENTED_EDGE ( 'NONE', *, *, #207, .T. ) ;
#367 = DIRECTION ( 'NONE',  ( -1.000000000000000000, -0.000000000000000000, -0.000000000000000000 ) ) ;
#368 = ORIENTED_EDGE ( 'NONE', *, *, #755, .F. ) ;
#369 = ADVANCED_FACE ( 'NONE', ( #531 ), #413, .F. ) ;
#370 = ORIENTED_EDGE ( 'NONE', *, *, #621, .T. ) ;
#371 = CIRCLE ( 'NONE', #483, 1.000000000000000888 ) ;
#372 = CYLINDRICAL_SURFACE ( 'NONE', #733, 2.000000000000001776 ) ;
#373 = ORIENTED_EDGE ( 'NONE', *, *, #536, .F. ) ;
#374 = VERTEX_POINT ( 'NONE', #409 ) ;
#375 = ADVANCED_FACE ( 'NONE', ( #220, #582 ), #586, .T. ) ;
#376 = CARTESIAN_POINT ( 'NONE',  ( 16.63612175143043714, -8.432886059807744417, -4.000000000000000000 ) ) ;
#377 = ORIENTED_EDGE ( 'NONE', *, *, #147, .F. ) ;
#378 = FACE_BOUND ( 'NONE', #551, .T. ) ;
#379 = ORIENTED_EDGE ( 'NONE', *, *, #522, .T. ) ;
#380 = EDGE_LOOP ( 'NONE', ( #205, #8, #22, #734 ) ) ;
#381 = LINE ( 'NONE', #322, #700 ) ;
#382 = DIRECTION ( 'NONE',  ( 1.000000000000000000, 0.000000000000000000, 0.000000000000000000 ) ) ;
#383 = ORIENTED_EDGE ( 'NONE', *, *, #617, .T. ) ;
#384 = DIRECTION ( 'NONE',  ( 1.000000000000000000, 0.000000000000000000, 0.000000000000000000 ) ) ;
#385 = VECTOR ( 'NONE', #174, 1000.000000000000000 ) ;
#386 = VERTEX_POINT ( 'NONE', #697 ) ;
#387 =( LENGTH_UNIT ( ) NAMED_UNIT ( * ) SI_UNIT ( .MILLI., .METRE. ) );
#388 = VECTOR ( 'NONE', #335, 1000.000000000000000 ) ;
#389 = VECTOR ( 'NONE', #584, 1000.000000000000000 ) ;
#390 = LINE ( 'NONE', #332, #630 ) ;
#391 = ORIENTED_EDGE ( 'NONE', *, *, #699, .F. ) ;
#392 = FACE_OUTER_BOUND ( 'NONE', #307, .T. ) ;
#393 = CIRCLE ( 'NONE', #595, 2.000000000000001776 ) ;
#394 = LINE ( 'NONE', #578, #524 ) ;
#395 = EDGE_LOOP ( 'NONE', ( #34, #432, #651, #494, #192, #746, #356, #21 ) ) ;
#396 = DIRECTION ( 'NONE',  ( -1.734723475976806848E-16, -1.000000000000000000, 0.000000000000000000 ) ) ;
#397 = PLANE ( 'NONE',  #244 ) ;
#398 = EDGE_CURVE ( 'NONE', #485, #620, #464, .T. ) ;
#399 = LINE ( 'NONE', #102, #491 ) ;
#400 = LINE ( 'NONE', #526, #173 ) ;
#401 = DIRECTION ( 'NONE',  ( -0.000000000000000000, 0.000000000000000000, -1.000000000000000000 ) ) ;
#402 = CARTESIAN_POINT ( 'NONE',  ( 51.63612175143043714, -8.432886059807744417, -4.000000000000000000 ) ) ;
#403 = CARTESIAN_POINT ( 'NONE',  ( -71.57199219107647536, -37.85816615945162766, -1.555301434917121571E-16 ) ) ;
#404 = CARTESIAN_POINT ( 'NONE',  ( 4.735040550551730121, 3.480170656766860660, 0.000000000000000000 ) ) ;
#405 = CIRCLE ( 'NONE', #706, 2.000000000000001776 ) ;
#406 = EDGE_CURVE ( 'NONE', #136, #562, #286, .T. ) ;
#407 = EDGE_CURVE ( 'NONE', #485, #130, #637, .T. ) ;
#408 = CIRCLE ( 'NONE', #610, 2.000000000000001776 ) ;
#409 = CARTESIAN_POINT ( 'NONE',  ( 50.63612175143043714, -8.432886059807744417, 0.000000000000000000 ) ) ;
#410 = DIRECTION ( 'NONE',  ( -0.000000000000000000, -0.000000000000000000, -1.000000000000000000 ) ) ;
#411 = CARTESIAN_POINT ( 'NONE',  ( 52.63612175143043714, -8.432886059807744417, 0.000000000000000000 ) ) ;
#412 = CARTESIAN_POINT ( 'NONE',  ( 0.000000000000000000, 0.000000000000000000, 0.000000000000000000 ) ) ;
#413 = PLANE ( 'NONE',  #351 ) ;
#414 = LINE ( 'NONE', #589, #125 ) ;
#415 = FACE_OUTER_BOUND ( 'NONE', #427, .T. ) ;
#416 =( GEOMETRIC_REPRESENTATION_CONTEXT ( 3 ) GLOBAL_UNCERTAINTY_ASSIGNED_CONTEXT ( ( #564 ) ) GLOBAL_UNIT_ASSIGNED_CONTEXT ( ( #387, #96, #744 ) ) REPRESENTATION_CONTEXT ( 'NONE', 'WORKASPACE' ) );
#417 = ORIENTED_EDGE ( 'NONE', *, *, #617, .F. ) ;
#418 = CARTESIAN_POINT ( 'NONE',  ( -15.26495944944826988, -16.51982934323313756, 0.000000000000000000 ) ) ;
#419 = ADVANCED_FACE ( 'NONE', ( #352 ), #56, .F. ) ;
#420 = APPLICATION_PROTOCOL_DEFINITION ( 'draft international standard', 'automotive_design', 1998, #709 ) ;
#421 = FACE_OUTER_BOUND ( 'NONE', #723, .T. ) ;
#422 = EDGE_LOOP ( 'NONE', ( #674, #329, #257, #606 ) ) ;
#423 = VERTEX_POINT ( 'NONE', #520 ) ;
#424 = EDGE_CURVE ( 'NONE', #386, #729, #41, .T. ) ;
#425 = DIRECTION ( 'NONE',  ( 0.000000000000000000, 0.000000000000000000, 1.000000000000000000 ) ) ;
#426 = EDGE_LOOP ( 'NONE', ( #82, #312, #121, #149 ) ) ;
#427 = EDGE_LOOP ( 'NONE', ( #245, #391, #152, #206 ) ) ;
#428 = AXIS2_PLACEMENT_3D ( 'NONE', #456, #157, #514 ) ;
#429 = AXIS2_PLACEMENT_3D ( 'NONE', #292, #473, #175 ) ;
#430 = CARTESIAN_POINT ( 'NONE',  ( 74.61800780892355078, -37.85816615945162766, 1.269999999999999130 ) ) ;
#431 = ORIENTED_EDGE ( 'NONE', *, *, #704, .T. ) ;
#432 = ORIENTED_EDGE ( 'NONE', *, *, #258, .T. ) ;
#433 = CIRCLE ( 'NONE', #694, 2.000000000000003553 ) ;
#434 = CARTESIAN_POINT ( 'NONE',  ( -15.26495944944826988, 3.480170656766860660, 2.540000000000000036 ) ) ;
#435 = ADVANCED_FACE ( 'NONE', ( #337 ), #466, .F. ) ;
#436 = ORIENTED_EDGE ( 'NONE', *, *, #558, .T. ) ;
#437 = ORIENTED_EDGE ( 'NONE', *, *, #770, .F. ) ;
#438 = DIRECTION ( 'NONE',  ( 1.000000000000000000, 0.000000000000000000, 0.000000000000000000 ) ) ;
#439 = CARTESIAN_POINT ( 'NONE',  ( -15.26495944944826988, 3.480170656766860660, 0.000000000000000000 ) ) ;
#440 = EDGE_LOOP ( 'NONE', ( #436, #140 ) ) ;
#441 = ORIENTED_EDGE ( 'NONE', *, *, #406, .T. ) ;
#442 = DIRECTION ( 'NONE',  ( 1.000000000000000000, 0.000000000000000000, 0.000000000000000000 ) ) ;
#443 = DIRECTION ( 'NONE',  ( -0.000000000000000000, -0.000000000000000000, -1.000000000000000000 ) ) ;
#444 = ORIENTED_EDGE ( 'NONE', *, *, #227, .T. ) ;
#445 = EDGE_LOOP ( 'NONE', ( #720, #690, #30, #123, #360, #373, #611, #145 ) ) ;
#446 = AXIS2_PLACEMENT_3D ( 'NONE', #325, #150, #32 ) ;
#447 = CARTESIAN_POINT ( 'NONE',  ( 16.63612175143043714, -8.432886059807744417, -4.000000000000000000 ) ) ;
#448 = ORIENTED_EDGE ( 'NONE', *, *, #306, .T. ) ;
#449 = DIRECTION ( 'NONE',  ( -1.000000000000000000, 0.000000000000000000, 0.000000000000000000 ) ) ;
#450 = VECTOR ( 'NONE', #50, 1000.000000000000000 ) ;
#451 = ADVANCED_FACE ( 'NONE', ( #701 ), #470, .F. ) ;
#452 = LINE ( 'NONE', #208, #763 ) ;
#453 = ORIENTED_EDGE ( 'NONE', *, *, #349, .T. ) ;
#454 = CARTESIAN_POINT ( 'NONE',  ( 16.63612175143043714, -8.432886059807744417, 0.000000000000000000 ) ) ;
#455 = ADVANCED_FACE ( 'NONE', ( #652 ), #113, .F. ) ;
#456 = CARTESIAN_POINT ( 'NONE',  ( 51.63612175143043714, -8.432886059807744417, -4.000000000000000000 ) ) ;
#457 = PRODUCT ( 'Radar Enclosure - Front Panel 0.1', 'Radar Enclosure - Front Panel 0.1', '', ( #594 ) ) ;
#458 = VECTOR ( 'NONE', #732, 1000.000000000000000 ) ;
#459 = FACE_OUTER_BOUND ( 'NONE', #440, .T. ) ;
#460 = EDGE_CURVE ( 'NONE', #130, #213, #527, .T. ) ;
#461 = DIRECTION ( 'NONE',  ( 1.000000000000000000, 0.000000000000000000, -0.000000000000000000 ) ) ;
#462 = DIRECTION ( 'NONE',  ( -0.000000000000000000, -0.000000000000000000, -1.000000000000000000 ) ) ;
#463 = DIRECTION ( 'NONE',  ( 0.000000000000000000, 0.000000000000000000, 1.000000000000000000 ) ) ;
#464 = CIRCLE ( 'NONE', #691, 2.000000000000001776 ) ;
#465 = AXIS2_PLACEMENT_3D ( 'NONE', #552, #81, #442 ) ;
#466 = PLANE ( 'NONE',  #764 ) ;
#467 = CARTESIAN_POINT ( 'NONE',  ( 75.88800780892356102, 37.14183384054836523, -1.555301434917121571E-16 ) ) ;
#468 = VECTOR ( 'NONE', #51, 1000.000000000000000 ) ;
#469 = DIRECTION ( 'NONE',  ( 0.000000000000000000, 0.000000000000000000, 1.000000000000000000 ) ) ;
#470 = PLANE ( 'NONE',  #429 ) ;
#471 = FACE_OUTER_BOUND ( 'NONE', #117, .T. ) ;
#472 = CARTESIAN_POINT ( 'NONE',  ( 53.63612175143043714, -8.432886059807744417, 0.000000000000000000 ) ) ;
#473 = DIRECTION ( 'NONE',  ( 0.000000000000000000, -1.000000000000000000, 0.000000000000000000 ) ) ;
#474 = CARTESIAN_POINT ( 'NONE',  ( -15.26495944944826988, -16.51982934323313756, 0.000000000000000000 ) ) ;
#475 = CARTESIAN_POINT ( 'NONE',  ( -15.26495944944826988, 3.480170656766860660, 2.540000000000000036 ) ) ;
#476 = ORIENTED_EDGE ( 'NONE', *, *, #643, .T. ) ;
#477 = CARTESIAN_POINT ( 'NONE',  ( -71.57199219107647536, -37.85816615945162766, -1.555301434917121571E-16 ) ) ;
#478 = CARTESIAN_POINT ( 'NONE',  ( 74.61800780892355078, -37.85816615945162766, 1.269999999999999130 ) ) ;
#479 = VERTEX_POINT ( 'NONE', #599 ) ;
#480 = EDGE_CURVE ( 'NONE', #499, #320, #6, .T. ) ;
#481 = CARTESIAN_POINT ( 'NONE',  ( 74.61800780892355078, -37.85816615945162766, 1.269999999999999130 ) ) ;
#482 = CARTESIAN_POINT ( 'NONE',  ( 49.63612175143043714, -8.432886059807744417, -4.000000000000000000 ) ) ;
#483 = AXIS2_PLACEMENT_3D ( 'NONE', #762, #226, #708 ) ;
#484 = ORIENTED_EDGE ( 'NONE', *, *, #460, .T. ) ;
#485 = VERTEX_POINT ( 'NONE', #482 ) ;
#486 = CARTESIAN_POINT ( 'NONE',  ( -71.57199219107647536, -37.85816615945162766, -1.555301434917121571E-16 ) ) ;
#487 = DIRECTION ( 'NONE',  ( 0.000000000000000000, -0.000000000000000000, -1.000000000000000000 ) ) ;
#488 = ORIENTED_EDGE ( 'NONE', *, *, #680, .T. ) ;
#489 = ORIENTED_EDGE ( 'NONE', *, *, #88, .F. ) ;
#490 = AXIS2_PLACEMENT_3D ( 'NONE', #486, #29, #689 ) ;
#491 = VECTOR ( 'NONE', #462, 1000.000000000000000 ) ;
#492 = ADVANCED_FACE ( 'NONE', ( #722 ), #549, .F. ) ;
#493 = DIRECTION ( 'NONE',  ( 0.000000000000000000, 0.000000000000000000, -1.000000000000000000 ) ) ;
#494 = ORIENTED_EDGE ( 'NONE', *, *, #170, .T. ) ;
#495 = ORIENTED_EDGE ( 'NONE', *, *, #65, .F. ) ;
#496 = VECTOR ( 'NONE', #605, 1000.000000000000000 ) ;
#497 = CARTESIAN_POINT ( 'NONE',  ( 53.63612175143043714, -8.432886059807744417, -4.000000000000000000 ) ) ;
#498 = ORIENTED_EDGE ( 'NONE', *, *, #643, .F. ) ;
#499 = VERTEX_POINT ( 'NONE', #609 ) ;
#500 = DIRECTION ( 'NONE',  ( 1.000000000000000000, 0.000000000000000000, 0.000000000000000000 ) ) ;
#501 = CARTESIAN_POINT ( 'NONE',  ( 16.63612175143043714, -8.432886059807744417, 0.000000000000000000 ) ) ;
#502 = ORIENTED_EDGE ( 'NONE', *, *, #132, .T. ) ;
#503 = ADVANCED_FACE ( 'NONE', ( #715, #656, #177, #254 ), #250, .F. ) ;
#504 = CARTESIAN_POINT ( 'NONE',  ( 4.735040550551730121, -16.51982934323314112, 2.540000000000000036 ) ) ;
#505 = CARTESIAN_POINT ( 'NONE',  ( 74.61800780892355078, 37.14183384054836523, 1.269999999999999130 ) ) ;
#506 = EDGE_CURVE ( 'NONE', #546, #79, #116, .T. ) ;
#507 = VERTEX_POINT ( 'NONE', #596 ) ;
#508 = EDGE_CURVE ( 'NONE', #39, #311, #774, .T. ) ;
#509 = CARTESIAN_POINT ( 'NONE',  ( 0.000000000000000000, 0.000000000000000000, 2.540000000000000036 ) ) ;
#510 = ORIENTED_EDGE ( 'NONE', *, *, #3, .F. ) ;
#511 = LINE ( 'NONE', #91, #73 ) ;
#512 = VECTOR ( 'NONE', #354, 1000.000000000000000 ) ;
#513 = ADVANCED_FACE ( 'NONE', ( #415 ), #182, .F. ) ;
#514 = DIRECTION ( 'NONE',  ( -1.000000000000000000, 0.000000000000000000, 0.000000000000000000 ) ) ;
#515 = DIRECTION ( 'NONE',  ( 0.000000000000000000, 0.000000000000000000, -1.000000000000000000 ) ) ;
#516 = EDGE_CURVE ( 'NONE', #479, #39, #127, .T. ) ;
#517 = PLANE ( 'NONE',  #731 ) ;
#518 = CARTESIAN_POINT ( 'NONE',  ( -15.26495944944826988, 3.480170656766860660, 2.540000000000000036 ) ) ;
#519 = CARTESIAN_POINT ( 'NONE',  ( -15.26495944944826988, 3.480170656766860660, 0.000000000000000000 ) ) ;
#520 = CARTESIAN_POINT ( 'NONE',  ( -70.30199219107646513, -37.85816615945162766, 1.269999999999999130 ) ) ;
#521 = DIRECTION ( 'NONE',  ( -1.000000000000000000, 0.000000000000000000, -0.000000000000000000 ) ) ;
#522 = EDGE_CURVE ( 'NONE', #423, #739, #537, .T. ) ;
#523 = FACE_OUTER_BOUND ( 'NONE', #380, .T. ) ;
#524 = VECTOR ( 'NONE', #85, 1000.000000000000000 ) ;
#525 = CARTESIAN_POINT ( 'NONE',  ( 4.735040550551730121, -16.51982934323314112, 2.540000000000000036 ) ) ;
#526 = CARTESIAN_POINT ( 'NONE',  ( 74.61800780892355078, 37.14183384054836523, 1.269999999999999130 ) ) ;
#527 = CIRCLE ( 'NONE', #557, 2.000000000000001776 ) ;
#528 = LINE ( 'NONE', #180, #389 ) ;
#529 = EDGE_CURVE ( 'NONE', #112, #507, #433, .T. ) ;
#530 = CIRCLE ( 'NONE', #194, 0.9999999999999974465 ) ;
#531 = FACE_OUTER_BOUND ( 'NONE', #422, .T. ) ;
#532 = DIRECTION ( 'NONE',  ( -1.000000000000000000, 0.000000000000000000, 0.000000000000000000 ) ) ;
#533 = EDGE_CURVE ( 'NONE', #553, #538, #301, .T. ) ;
#534 = DIRECTION ( 'NONE',  ( 1.000000000000000000, 0.000000000000000000, 0.000000000000000000 ) ) ;
#535 = CARTESIAN_POINT ( 'NONE',  ( 17.63612175143043359, -8.432886059807744417, 0.000000000000000000 ) ) ;
#536 = EDGE_CURVE ( 'NONE', #79, #386, #12, .T. ) ;
#537 = LINE ( 'NONE', #359, #769 ) ;
#538 = VERTEX_POINT ( 'NONE', #659 ) ;
#539 = LINE ( 'NONE', #111, #211 ) ;
#540 = PLANE ( 'NONE',  #115 ) ;
#541 = ORIENTED_EDGE ( 'NONE', *, *, #358, .F. ) ;
#542 = ORIENTED_EDGE ( 'NONE', *, *, #758, .T. ) ;
#543 = MECHANICAL_DESIGN_GEOMETRIC_PRESENTATION_REPRESENTATION (  '', ( #334 ), #416 ) ;
#544 = CARTESIAN_POINT ( 'NONE',  ( 51.63612175143043714, -8.432886059807744417, -4.000000000000000000 ) ) ;
#545 = VECTOR ( 'NONE', #108, 1000.000000000000000 ) ;
#546 = VERTEX_POINT ( 'NONE', #673 ) ;
#547 = ORIENTED_EDGE ( 'NONE', *, *, #119, .F. ) ;
#548 = EDGE_CURVE ( 'NONE', #79, #562, #304, .T. ) ;
#549 = CYLINDRICAL_SURFACE ( 'NONE', #316, 0.9999999999999974465 ) ;
#550 = ORIENTED_EDGE ( 'NONE', *, *, #506, .F. ) ;
#551 = EDGE_LOOP ( 'NONE', ( #453, #600, #603, #672 ) ) ;
#552 = CARTESIAN_POINT ( 'NONE',  ( 51.63612175143043714, -8.432886059807744417, 0.000000000000000000 ) ) ;
#553 = VERTEX_POINT ( 'NONE', #475 ) ;
#554 = ORIENTED_EDGE ( 'NONE', *, *, #363, .T. ) ;
#555 = AXIS2_PLACEMENT_3D ( 'NONE', #638, #515, #274 ) ;
#556 = ORIENTED_EDGE ( 'NONE', *, *, #633, .T. ) ;
#557 = AXIS2_PLACEMENT_3D ( 'NONE', #246, #487, #534 ) ;
#558 = EDGE_CURVE ( 'NONE', #620, #485, #393, .T. ) ;
#559 = DIRECTION ( 'NONE',  ( -1.000000000000000000, 0.000000000000000000, -0.000000000000000000 ) ) ;
#560 = LINE ( 'NONE', #264, #388 ) ;
#561 = ORIENTED_EDGE ( 'NONE', *, *, #119, .T. ) ;
#562 = VERTEX_POINT ( 'NONE', #718 ) ;
#563 = DIRECTION ( 'NONE',  ( -0.000000000000000000, 1.000000000000000000, -0.000000000000000000 ) ) ;
#564 = UNCERTAINTY_MEASURE_WITH_UNIT (LENGTH_MEASURE( 1.000000000000000082E-05 ), #387, 'distance_accuracy_value', 'NONE');
#565 = ADVANCED_FACE ( 'NONE', ( #421 ), #540, .T. ) ;
#566 = CYLINDRICAL_SURFACE ( 'NONE', #189, 1.000000000000000888 ) ;
#567 = ORIENTED_EDGE ( 'NONE', *, *, #737, .T. ) ;
#568 = CARTESIAN_POINT ( 'NONE',  ( 51.63612175143043714, -8.432886059807744417, -4.000000000000000000 ) ) ;
#569 = VECTOR ( 'NONE', #199, 1000.000000000000000 ) ;
#570 = CIRCLE ( 'NONE', #592, 1.000000000000000888 ) ;
#571 = FACE_OUTER_BOUND ( 'NONE', #687, .T. ) ;
#572 = VERTEX_POINT ( 'NONE', #618 ) ;
#573 = DIRECTION ( 'NONE',  ( 0.000000000000000000, 1.000000000000000000, 0.000000000000000000 ) ) ;
#574 = CLOSED_SHELL ( 'NONE', ( #492, #712, #598, #577, #455, #451, #644, #503, #435, #369, #158, #419, #711, #375, #9, #339, #31, #146, #99, #565, #513, #275, #179, #43, #36, #726 ) ) ;
#575 = PLANE ( 'NONE',  #728 ) ;
#576 = SURFACE_STYLE_USAGE ( .BOTH. , #634 ) ;
#577 = ADVANCED_FACE ( 'NONE', ( #313 ), #372, .T. ) ;
#578 = CARTESIAN_POINT ( 'NONE',  ( 74.61800780892355078, -37.85816615945162766, 2.539999999999999147 ) ) ;
#579 = CARTESIAN_POINT ( 'NONE',  ( 4.735040550551730121, 3.480170656766860660, 2.540000000000000036 ) ) ;
#580 = CARTESIAN_POINT ( 'NONE',  ( 74.61800780892355078, -37.85816615945162766, 2.539999999999999147 ) ) ;
#581 = EDGE_LOOP ( 'NONE', ( #750, #202, #76, #476 ) ) ;
#582 = FACE_OUTER_BOUND ( 'NONE', #186, .T. ) ;
#583 = LINE ( 'NONE', #48, #107 ) ;
#584 = DIRECTION ( 'NONE',  ( -1.000000000000000000, -0.000000000000000000, -0.000000000000000000 ) ) ;
#585 = VECTOR ( 'NONE', #106, 1000.000000000000000 ) ;
#586 = PLANE ( 'NONE',  #255 ) ;
#587 = EDGE_CURVE ( 'NONE', #616, #671, #530, .T. ) ;
#588 = CARTESIAN_POINT ( 'NONE',  ( 16.63612175143043714, -8.432886059807744417, 0.000000000000000000 ) ) ;
#589 = CARTESIAN_POINT ( 'NONE',  ( 75.88800780892356102, -37.85816615945162766, 1.269999999999999130 ) ) ;
#590 = CIRCLE ( 'NONE', #428, 1.000000000000000888 ) ;
#591 = CARTESIAN_POINT ( 'NONE',  ( 49.63612175143043714, -8.432886059807744417, -4.000000000000000000 ) ) ;
#592 = AXIS2_PLACEMENT_3D ( 'NONE', #222, #105, #756 ) ;
#593 = CARTESIAN_POINT ( 'NONE',  ( 75.88800780892356102, -37.85816615945162766, -1.555301434917121571E-16 ) ) ;
#594 = PRODUCT_CONTEXT ( 'NONE', #308, 'mechanical' ) ;
#595 = AXIS2_PLACEMENT_3D ( 'NONE', #544, #237, #2 ) ;
#596 = CARTESIAN_POINT ( 'NONE',  ( 18.63612175143043714, -8.432886059807744417, -4.000000000000000000 ) ) ;
#597 = LINE ( 'NONE', #477, #450 ) ;
#598 = ADVANCED_FACE ( 'NONE', ( #262 ), #613, .T. ) ;
#599 = CARTESIAN_POINT ( 'NONE',  ( 75.88800780892356102, -37.85816615945162766, 1.269999999999999130 ) ) ;
#600 = ORIENTED_EDGE ( 'NONE', *, *, #263, .T. ) ;
#601 = LINE ( 'NONE', #234, #344 ) ;
#602 = CARTESIAN_POINT ( 'NONE',  ( -72.84199219107647139, 37.14183384054836523, 2.540000000000000036 ) ) ;
#603 = ORIENTED_EDGE ( 'NONE', *, *, #65, .T. ) ;
#604 = ORIENTED_EDGE ( 'NONE', *, *, #529, .F. ) ;
#605 = DIRECTION ( 'NONE',  ( 0.000000000000000000, 0.000000000000000000, 1.000000000000000000 ) ) ;
#606 = ORIENTED_EDGE ( 'NONE', *, *, #755, .T. ) ;
#607 = EDGE_LOOP ( 'NONE', ( #134, #628, #665, #383 ) ) ;
#608 = AXIS2_PLACEMENT_3D ( 'NONE', #568, #684, #384 ) ;
#609 = CARTESIAN_POINT ( 'NONE',  ( 74.61800780892355078, 37.14183384054836523, 2.539999999999999147 ) ) ;
#610 = AXIS2_PLACEMENT_3D ( 'NONE', #588, #346, #223 ) ;
#611 = ORIENTED_EDGE ( 'NONE', *, *, #548, .T. ) ;
#612 = ORIENTED_EDGE ( 'NONE', *, *, #18, .T. ) ;
#613 = CYLINDRICAL_SURFACE ( 'NONE', #353, 2.000000000000001776 ) ;
#614 = ORIENTED_EDGE ( 'NONE', *, *, #424, .T. ) ;
#615 = ORIENTED_EDGE ( 'NONE', *, *, #516, .F. ) ;
#616 = VERTEX_POINT ( 'NONE', #78 ) ;
#617 = EDGE_CURVE ( 'NONE', #213, #130, #58, .T. ) ;
#618 = CARTESIAN_POINT ( 'NONE',  ( 17.63612175143043359, -8.432886059807744417, 0.000000000000000000 ) ) ;
#619 = EDGE_LOOP ( 'NONE', ( #248, #498, #661, #242 ) ) ;
#620 = VERTEX_POINT ( 'NONE', #497 ) ;
#621 = EDGE_CURVE ( 'NONE', #775, #671, #143, .T. ) ;
#622 = DIRECTION ( 'NONE',  ( -0.000000000000000000, -0.000000000000000000, -1.000000000000000000 ) ) ;
#623 = CARTESIAN_POINT ( 'NONE',  ( 18.63612175143043714, -8.432886059807744417, -4.000000000000000000 ) ) ;
#624 = ORIENTED_EDGE ( 'NONE', *, *, #587, .T. ) ;
#625 = CARTESIAN_POINT ( 'NONE',  ( 14.63612175143043181, -8.432886059807744417, 0.000000000000000000 ) ) ;
#626 = PRODUCT_DEFINITION_SHAPE ( 'NONE', 'NONE',  #109 ) ;
#627 = DIRECTION ( 'NONE',  ( -0.000000000000000000, -0.000000000000000000, -1.000000000000000000 ) ) ;
#628 = ORIENTED_EDGE ( 'NONE', *, *, #558, .F. ) ;
#629 = CARTESIAN_POINT ( 'NONE',  ( -71.57199219107647536, 37.14183384054836523, 1.269999999999999130 ) ) ;
#630 = VECTOR ( 'NONE', #627, 1000.000000000000000 ) ;
#631 = VECTOR ( 'NONE', #357, 1000.000000000000000 ) ;
#632 = FACE_OUTER_BOUND ( 'NONE', #314, .T. ) ;
#633 = EDGE_CURVE ( 'NONE', #320, #739, #27, .T. ) ;
#634 = SURFACE_SIDE_STYLE ('',( #271 ) ) ;
#635 = CARTESIAN_POINT ( 'NONE',  ( 15.63612175143043892, -8.432886059807744417, 0.000000000000000000 ) ) ;
#636 = CYLINDRICAL_SURFACE ( 'NONE', #608, 2.000000000000001776 ) ;
#637 = LINE ( 'NONE', #591, #228 ) ;
#638 = CARTESIAN_POINT ( 'NONE',  ( -71.57199219107647536, -37.85816615945162766, 1.269999999999999130 ) ) ;
#639 = EDGE_CURVE ( 'NONE', #193, #63, #381, .T. ) ;
#640 = CARTESIAN_POINT ( 'NONE',  ( 16.63612175143043714, -8.432886059807744417, -4.000000000000000000 ) ) ;
#641 = DIRECTION ( 'NONE',  ( 0.000000000000000000, 0.000000000000000000, -1.000000000000000000 ) ) ;
#642 = CARTESIAN_POINT ( 'NONE',  ( 18.63612175143043714, -8.432886059807744417, 0.000000000000000000 ) ) ;
#643 = EDGE_CURVE ( 'NONE', #124, #196, #267, .T. ) ;
#644 = ADVANCED_FACE ( 'NONE', ( #571, #378 ), #575, .T. ) ;
#645 = DIRECTION ( 'NONE',  ( 1.000000000000000000, 0.000000000000000000, 0.000000000000000000 ) ) ;
#646 = CARTESIAN_POINT ( 'NONE',  ( 14.63612175143043181, -8.432886059807744417, -4.000000000000000000 ) ) ;
#647 = LINE ( 'NONE', #347, #545 ) ;
#648 = AXIS2_PLACEMENT_3D ( 'NONE', #163, #284, #521 ) ;
#649 = CARTESIAN_POINT ( 'NONE',  ( 51.63612175143043714, -8.432886059807744417, -4.000000000000000000 ) ) ;
#650 = CARTESIAN_POINT ( 'NONE',  ( 50.63612175143043714, -8.432886059807744417, 0.000000000000000000 ) ) ;
#651 = ORIENTED_EDGE ( 'NONE', *, *, #295, .T. ) ;
#652 = FACE_OUTER_BOUND ( 'NONE', #395, .T. ) ;
#653 = EDGE_CURVE ( 'NONE', #739, #63, #753, .T. ) ;
#654 = LINE ( 'NONE', #481, #291 ) ;
#655 = AXIS2_PLACEMENT_3D ( 'NONE', #663, #122, #62 ) ;
#656 = FACE_BOUND ( 'NONE', #80, .T. ) ;
#657 = EDGE_LOOP ( 'NONE', ( #614, #71, #615, #69 ) ) ;
#658 = CARTESIAN_POINT ( 'NONE',  ( -15.26495944944826988, -16.51982934323313756, 2.540000000000000036 ) ) ;
#659 = CARTESIAN_POINT ( 'NONE',  ( 4.735040550551730121, 3.480170656766860660, 2.540000000000000036 ) ) ;
#660 = ORIENTED_EDGE ( 'NONE', *, *, #522, .F. ) ;
#661 = ORIENTED_EDGE ( 'NONE', *, *, #349, .F. ) ;
#662 = EDGE_CURVE ( 'NONE', #239, #196, #560, .T. ) ;
#663 = CARTESIAN_POINT ( 'NONE',  ( 0.000000000000000000, 0.000000000000000000, 0.000000000000000000 ) ) ;
#664 = VECTOR ( 'NONE', #97, 1000.000000000000000 ) ;
#665 = ORIENTED_EDGE ( 'NONE', *, *, #770, .T. ) ;
#666 = ORIENTED_EDGE ( 'NONE', *, *, #61, .T. ) ;
#667 = AXIS2_PLACEMENT_3D ( 'NONE', #166, #396, #282 ) ;
#668 = EDGE_CURVE ( 'NONE', #196, #265, #452, .T. ) ;
#669 = DIRECTION ( 'NONE',  ( 0.000000000000000000, 0.000000000000000000, 1.000000000000000000 ) ) ;
#670 = VECTOR ( 'NONE', #425, 1000.000000000000000 ) ;
#671 = VERTEX_POINT ( 'NONE', #204 ) ;
#672 = ORIENTED_EDGE ( 'NONE', *, *, #533, .T. ) ;
#673 = CARTESIAN_POINT ( 'NONE',  ( 75.88800780892357523, -37.85816615945162766, 0.000000000000000000 ) ) ;
#674 = ORIENTED_EDGE ( 'NONE', *, *, #66, .T. ) ;
#675 = ORIENTED_EDGE ( 'NONE', *, *, #680, .F. ) ;
#676 = DIRECTION ( 'NONE',  ( -0.000000000000000000, -0.000000000000000000, 1.000000000000000000 ) ) ;
#677 = DIRECTION ( 'NONE',  ( 0.000000000000000000, 0.000000000000000000, -1.000000000000000000 ) ) ;
#678 = EDGE_LOOP ( 'NONE', ( #137, #178 ) ) ;
#679 = ORIENTED_EDGE ( 'NONE', *, *, #132, .F. ) ;
#680 = EDGE_CURVE ( 'NONE', #507, #252, #24, .T. ) ;
#681 = DIRECTION ( 'NONE',  ( -1.000000000000000000, 0.000000000000000000, 0.000000000000000000 ) ) ;
#682 = DIRECTION ( 'NONE',  ( -0.000000000000000000, -0.000000000000000000, 1.000000000000000000 ) ) ;
#683 = ORIENTED_EDGE ( 'NONE', *, *, #306, .F. ) ;
#684 = DIRECTION ( 'NONE',  ( -0.000000000000000000, -0.000000000000000000, 1.000000000000000000 ) ) ;
#685 = PRESENTATION_LAYER_ASSIGNMENT (  '', '', ( #334 ) ) ;
#686 = FACE_OUTER_BOUND ( 'NONE', #197, .T. ) ;
#687 = EDGE_LOOP ( 'NONE', ( #510, #366, #730, #266 ) ) ;
#688 = AXIS2_PLACEMENT_3D ( 'NONE', #281, #641, #759 ) ;
#689 = DIRECTION ( 'NONE',  ( -0.000000000000000000, 0.000000000000000000, -1.000000000000000000 ) ) ;
#690 = ORIENTED_EDGE ( 'NONE', *, *, #633, .F. ) ;
#691 = AXIS2_PLACEMENT_3D ( 'NONE', #649, #162, #110 ) ;
#692 = CARTESIAN_POINT ( 'NONE',  ( -71.57199219107647536, 37.14183384054836523, -1.555301434917121571E-16 ) ) ;
#693 = DIRECTION ( 'NONE',  ( 1.000000000000000000, 0.000000000000000000, 0.000000000000000000 ) ) ;
#694 = AXIS2_PLACEMENT_3D ( 'NONE', #241, #493, #364 ) ;
#695 = LINE ( 'NONE', #345, #93 ) ;
#696 = FILL_AREA_STYLE ('',( #98 ) ) ;
#697 = CARTESIAN_POINT ( 'NONE',  ( 75.88800780892356102, 37.14183384054836523, 1.269999999999999130 ) ) ;
#698 = CARTESIAN_POINT ( 'NONE',  ( 16.63612175143043714, -8.432886059807744417, 0.000000000000000000 ) ) ;
#699 = EDGE_CURVE ( 'NONE', #311, #499, #394, .T. ) ;
#700 = VECTOR ( 'NONE', #563, 1000.000000000000000 ) ;
#701 = FACE_OUTER_BOUND ( 'NONE', #445, .T. ) ;
#702 = CARTESIAN_POINT ( 'NONE',  ( 4.735040550551730121, -16.51982934323314112, 2.540000000000000036 ) ) ;
#703 = FACE_OUTER_BOUND ( 'NONE', #68, .T. ) ;
#704 = EDGE_CURVE ( 'NONE', #572, #775, #54, .T. ) ;
#705 = DIRECTION ( 'NONE',  ( -1.000000000000000000, 0.000000000000000000, 0.000000000000000000 ) ) ;
#706 = AXIS2_PLACEMENT_3D ( 'NONE', #454, #338, #693 ) ;
#707 = PLANE ( 'NONE',  #648 ) ;
#708 = DIRECTION ( 'NONE',  ( -1.000000000000000000, 0.000000000000000000, 0.000000000000000000 ) ) ;
#709 = APPLICATION_CONTEXT ( 'automotive_design' ) ;
#710 = CIRCLE ( 'NONE', #49, 0.9999999999999974465 ) ;
#711 = ADVANCED_FACE ( 'NONE', ( #632 ), #277, .T. ) ;
#712 = ADVANCED_FACE ( 'NONE', ( #749 ), #566, .F. ) ;
#713 = DIRECTION ( 'NONE',  ( 1.000000000000000000, 0.000000000000000000, 0.000000000000000000 ) ) ;
#714 = FACE_OUTER_BOUND ( 'NONE', #657, .T. ) ;
#715 = FACE_BOUND ( 'NONE', #270, .T. ) ;
#716 = ORIENTED_EDGE ( 'NONE', *, *, #653, .T. ) ;
#717 = CARTESIAN_POINT ( 'NONE',  ( -70.30199219107646513, -37.85816615945162766, 2.539999999999999147 ) ) ;
#718 = CARTESIAN_POINT ( 'NONE',  ( -71.57199219107647536, 37.14183384054836523, 0.000000000000000000 ) ) ;
#719 = ORIENTED_EDGE ( 'NONE', *, *, #61, .F. ) ;
#720 = ORIENTED_EDGE ( 'NONE', *, *, #653, .F. ) ;
#721 = VECTOR ( 'NONE', #167, 1000.000000000000000 ) ;
#722 = FACE_OUTER_BOUND ( 'NONE', #324, .T. ) ;
#723 = EDGE_LOOP ( 'NONE', ( #502, #431 ) ) ;
#724 = ORIENTED_EDGE ( 'NONE', *, *, #142, .F. ) ;
#725 = DIRECTION ( 'NONE',  ( -1.000000000000000000, 0.000000000000000000, 0.000000000000000000 ) ) ;
#726 = ADVANCED_FACE ( 'NONE', ( #686 ), #212, .F. ) ;
#727 = DIRECTION ( 'NONE',  ( -0.000000000000000000, -0.000000000000000000, -1.000000000000000000 ) ) ;
#728 = AXIS2_PLACEMENT_3D ( 'NONE', #509, #38, #382 ) ;
#729 = VERTEX_POINT ( 'NONE', #505 ) ;
#730 = ORIENTED_EDGE ( 'NONE', *, *, #699, .T. ) ;
#731 = AXIS2_PLACEMENT_3D ( 'NONE', #402, #230, #771 ) ;
#732 = DIRECTION ( 'NONE',  ( 1.000000000000000000, 0.000000000000000000, 0.000000000000000000 ) ) ;
#733 = AXIS2_PLACEMENT_3D ( 'NONE', #376, #259, #438 ) ;
#734 = ORIENTED_EDGE ( 'NONE', *, *, #506, .T. ) ;
#735 = ORIENTED_EDGE ( 'NONE', *, *, #758, .F. ) ;
#736 = CARTESIAN_POINT ( 'NONE',  ( -70.30199219107646513, 37.14183384054836523, 1.269999999999999130 ) ) ;
#737 = EDGE_CURVE ( 'NONE', #63, #562, #151, .T. ) ;
#738 = ORIENTED_EDGE ( 'NONE', *, *, #621, .F. ) ;
#739 = VERTEX_POINT ( 'NONE', #33 ) ;
#740 = VERTEX_POINT ( 'NONE', #439 ) ;
#741 = DIRECTION ( 'NONE',  ( 0.000000000000000000, 0.000000000000000000, -1.000000000000000000 ) ) ;
#742 = DIRECTION ( 'NONE',  ( -1.000000000000000000, 0.000000000000000000, 0.000000000000000000 ) ) ;
#743 = ORIENTED_EDGE ( 'NONE', *, *, #529, .T. ) ;
#744 =( NAMED_UNIT ( * ) SI_UNIT ( $, .STERADIAN. ) SOLID_ANGLE_UNIT ( ) );
#745 = UNCERTAINTY_MEASURE_WITH_UNIT (LENGTH_MEASURE( 1.000000000000000082E-05 ), #272, 'distance_accuracy_value', 'NONE');
#746 = ORIENTED_EDGE ( 'NONE', *, *, #215, .T. ) ;
#747 = DIRECTION ( 'NONE',  ( -0.000000000000000000, 0.000000000000000000, -1.000000000000000000 ) ) ;
#748 = PRODUCT_DEFINITION_FORMATION_WITH_SPECIFIED_SOURCE ( 'ANY', '', #457, .NOT_KNOWN. ) ;
#749 = FACE_OUTER_BOUND ( 'NONE', #247, .T. ) ;
#750 = ORIENTED_EDGE ( 'NONE', *, *, #668, .T. ) ;
#751 = DIRECTION ( 'NONE',  ( -0.000000000000000000, 1.000000000000000000, -0.000000000000000000 ) ) ;
#752 = CIRCLE ( 'NONE', #688, 0.9999999999999974465 ) ;
#753 = LINE ( 'NONE', #328, #664 ) ;
#754 = FACE_OUTER_BOUND ( 'NONE', #607, .T. ) ;
#755 = EDGE_CURVE ( 'NONE', #553, #740, #390, .T. ) ;
#756 = DIRECTION ( 'NONE',  ( -1.000000000000000000, 0.000000000000000000, 0.000000000000000000 ) ) ;
#757 = DIRECTION ( 'NONE',  ( -0.000000000000000000, -1.000000000000000000, -0.000000000000000000 ) ) ;
#758 = EDGE_CURVE ( 'NONE', #184, #260, #590, .T. ) ;
#759 = DIRECTION ( 'NONE',  ( -1.000000000000000000, 0.000000000000000000, 0.000000000000000000 ) ) ;
#760 = DIRECTION ( 'NONE',  ( -1.000000000000000000, 0.000000000000000000, 0.000000000000000000 ) ) ;
#761 = CARTESIAN_POINT ( 'NONE',  ( 14.63612175143043181, -8.432886059807744417, -4.000000000000000000 ) ) ;
#762 = CARTESIAN_POINT ( 'NONE',  ( 51.63612175143043714, -8.432886059807744417, 0.000000000000000000 ) ) ;
#763 = VECTOR ( 'NONE', #269, 1000.000000000000000 ) ;
#764 = AXIS2_PLACEMENT_3D ( 'NONE', #525, #713, #765 ) ;
#765 = DIRECTION ( 'NONE',  ( 0.000000000000000000, 0.000000000000000000, -1.000000000000000000 ) ) ;
#766 = CYLINDRICAL_SURFACE ( 'NONE', #276, 0.9999999999999974465 ) ;
#767 = AXIS2_PLACEMENT_3D ( 'NONE', #330, #101, #449 ) ;
#768 = CARTESIAN_POINT ( 'NONE',  ( 16.63612175143043714, -8.432886059807744417, -4.000000000000000000 ) ) ;
#769 = VECTOR ( 'NONE', #131, 1000.000000000000000 ) ;
#770 = EDGE_CURVE ( 'NONE', #620, #213, #188, .T. ) ;
#771 = DIRECTION ( 'NONE',  ( -1.000000000000000000, 0.000000000000000000, -0.000000000000000000 ) ) ;
#772 = DIRECTION ( 'NONE',  ( 0.000000000000000000, 0.000000000000000000, 1.000000000000000000 ) ) ;
#773 = DIRECTION ( 'NONE',  ( 0.000000000000000000, 0.000000000000000000, 1.000000000000000000 ) ) ;
#774 = LINE ( 'NONE', #430, #670 ) ;
#775 = VERTEX_POINT ( 'NONE', #635 ) ;
ENDSEC;
END-ISO-10303-21;
