M48
; DRILL file {KiCad 9.0.7} date 2026-04-10T15:29:42-0700
; FORMAT={-:-/ absolute / metric / decimal}
; #@! TF.CreationDate,2026-04-10T15:29:42-07:00
; #@! TF.GenerationSoftware,Kicad,Pcbnew,9.0.7
; #@! TF.FileFunction,Plated,1,2,PTH
FMAT,2
METRIC
; #@! TA.AperFunction,Plated,PTH,ComponentDrill
T1C0.200
; #@! TA.AperFunction,Plated,PTH,ViaDrill
T2C0.300
; #@! TA.AperFunction,Plated,PTH,ComponentDrill
T3C0.450
; #@! TA.AperFunction,Plated,PTH,ComponentDrill
T4C0.500
; #@! TA.AperFunction,Plated,PTH,ComponentDrill
T5C1.000
%
G90
G05
T1
X97.787Y-71.025
X97.787Y-72.125
X97.787Y-73.225
X98.887Y-71.025
X98.887Y-72.125
X98.887Y-73.225
X99.987Y-71.025
X99.987Y-72.125
X99.987Y-73.225
T2
X83.6Y-76.942
X85.0Y-68.0
X85.3Y-74.3
X85.3Y-79.6
X85.5Y-71.0
X90.6Y-75.9
X92.5Y-70.5
X92.9Y-75.1
X94.35Y-67.9
X95.0Y-73.0
X97.862Y-75.1
X97.9Y-67.1
X98.9Y-75.0
X100.601Y-76.701
X100.85Y-74.05
X101.1Y-75.95
X101.25Y-69.75
X101.6Y-73.7
T4
X89.0Y-81.4
X92.7Y-66.3
X92.8Y-69.2
X95.3Y-74.5
X100.8Y-81.6
T5
X94.0Y-80.0
X96.5Y-80.0
T3
X83.1Y-72.5G85X81.9Y-72.5
G05
X83.1Y-81.4G85X81.9Y-81.4
G05
X86.2Y-72.5G85X85.2Y-72.5
G05
X86.2Y-81.4G85X85.2Y-81.4
G05
M30
