%TF.GenerationSoftware,KiCad,Pcbnew,9.0.7*%
%TF.CreationDate,2026-03-31T13:51:16-07:00*%
%TF.ProjectId,Power Management Board,506f7765-7220-44d6-916e-6167656d656e,rev?*%
%TF.SameCoordinates,Original*%
%TF.FileFunction,Copper,L1,Top*%
%TF.FilePolarity,Positive*%
%FSLAX46Y46*%
G04 Gerber Fmt 4.6, Leading zero omitted, Abs format (unit mm)*
G04 Created by KiCad (PCBNEW 9.0.7) date 2026-03-31 13:51:16*
%MOMM*%
%LPD*%
G01*
G04 APERTURE LIST*
G04 Aperture macros list*
%AMRoundRect*
0 Rectangle with rounded corners*
0 $1 Rounding radius*
0 $2 $3 $4 $5 $6 $7 $8 $9 X,Y pos of 4 corners*
0 Add a 4 corners polygon primitive as box body*
4,1,4,$2,$3,$4,$5,$6,$7,$8,$9,$2,$3,0*
0 Add four circle primitives for the rounded corners*
1,1,$1+$1,$2,$3*
1,1,$1+$1,$4,$5*
1,1,$1+$1,$6,$7*
1,1,$1+$1,$8,$9*
0 Add four rect primitives between the rounded corners*
20,1,$1+$1,$2,$3,$4,$5,0*
20,1,$1+$1,$4,$5,$6,$7,0*
20,1,$1+$1,$6,$7,$8,$9,0*
20,1,$1+$1,$8,$9,$2,$3,0*%
G04 Aperture macros list end*
%TA.AperFunction,ComponentPad*%
%ADD10C,1.000000*%
%TD*%
%TA.AperFunction,SMDPad,CuDef*%
%ADD11RoundRect,0.200000X0.275000X-0.200000X0.275000X0.200000X-0.275000X0.200000X-0.275000X-0.200000X0*%
%TD*%
%TA.AperFunction,SMDPad,CuDef*%
%ADD12RoundRect,0.200000X0.200000X0.275000X-0.200000X0.275000X-0.200000X-0.275000X0.200000X-0.275000X0*%
%TD*%
%TA.AperFunction,SMDPad,CuDef*%
%ADD13RoundRect,0.140000X-0.140000X-0.170000X0.140000X-0.170000X0.140000X0.170000X-0.140000X0.170000X0*%
%TD*%
%TA.AperFunction,SMDPad,CuDef*%
%ADD14RoundRect,0.075000X-0.300000X0.075000X-0.300000X-0.075000X0.300000X-0.075000X0.300000X0.075000X0*%
%TD*%
%TA.AperFunction,SMDPad,CuDef*%
%ADD15RoundRect,0.062500X-0.312500X0.062500X-0.312500X-0.062500X0.312500X-0.062500X0.312500X0.062500X0*%
%TD*%
%TA.AperFunction,HeatsinkPad*%
%ADD16O,1.950000X0.950000*%
%TD*%
%TA.AperFunction,HeatsinkPad*%
%ADD17O,2.150000X0.950000*%
%TD*%
%TA.AperFunction,SMDPad,CuDef*%
%ADD18RoundRect,0.140000X0.140000X0.170000X-0.140000X0.170000X-0.140000X-0.170000X0.140000X-0.170000X0*%
%TD*%
%TA.AperFunction,SMDPad,CuDef*%
%ADD19RoundRect,0.218750X0.218750X0.381250X-0.218750X0.381250X-0.218750X-0.381250X0.218750X-0.381250X0*%
%TD*%
%TA.AperFunction,SMDPad,CuDef*%
%ADD20RoundRect,0.250000X-0.300000X0.300000X-0.300000X-0.300000X0.300000X-0.300000X0.300000X0.300000X0*%
%TD*%
%TA.AperFunction,ComponentPad*%
%ADD21RoundRect,0.250000X-0.600000X-0.750000X0.600000X-0.750000X0.600000X0.750000X-0.600000X0.750000X0*%
%TD*%
%TA.AperFunction,ComponentPad*%
%ADD22O,1.700000X2.000000*%
%TD*%
%TA.AperFunction,SMDPad,CuDef*%
%ADD23RoundRect,0.087500X-0.325000X-0.087500X0.325000X-0.087500X0.325000X0.087500X-0.325000X0.087500X0*%
%TD*%
%TA.AperFunction,SMDPad,CuDef*%
%ADD24RoundRect,0.087500X-0.087500X-0.325000X0.087500X-0.325000X0.087500X0.325000X-0.087500X0.325000X0*%
%TD*%
%TA.AperFunction,HeatsinkPad*%
%ADD25C,0.500000*%
%TD*%
%TA.AperFunction,HeatsinkPad*%
%ADD26R,2.700000X2.700000*%
%TD*%
%TA.AperFunction,SMDPad,CuDef*%
%ADD27R,0.660400X0.203200*%
%TD*%
%TA.AperFunction,SMDPad,CuDef*%
%ADD28R,0.990600X1.600200*%
%TD*%
%TA.AperFunction,SMDPad,CuDef*%
%ADD29R,0.500000X2.000000*%
%TD*%
%TA.AperFunction,SMDPad,CuDef*%
%ADD30R,2.000000X1.700000*%
%TD*%
%TA.AperFunction,ViaPad*%
%ADD31C,0.600000*%
%TD*%
%TA.AperFunction,Conductor*%
%ADD32C,0.500000*%
%TD*%
%TA.AperFunction,Conductor*%
%ADD33C,0.200000*%
%TD*%
%TA.AperFunction,Conductor*%
%ADD34C,0.196800*%
%TD*%
G04 APERTURE END LIST*
D10*
%TO.P,GND,1,1*%
%TO.N,GND*%
X92700000Y-66300000D03*
%TD*%
%TO.P,5V OUT,1,1*%
%TO.N,+5V*%
X92800000Y-69200000D03*
%TD*%
%TO.P,BATT,1,1*%
%TO.N,+BATT*%
X100800000Y-81600000D03*
%TD*%
%TO.P,LOAD,1,1*%
%TO.N,/SYS*%
X95300000Y-74500000D03*
%TD*%
%TO.P,5V IN,1,1*%
%TO.N,VBUS*%
X89000000Y-81400000D03*
%TD*%
D11*
%TO.P,R5,2*%
%TO.N,GND*%
X83500000Y-68525000D03*
%TO.P,R5,1*%
%TO.N,Net-(J1-CC1)*%
X83500000Y-70175000D03*
%TD*%
%TO.P,R4,2*%
%TO.N,GND*%
X86500000Y-68525000D03*
%TO.P,R4,1*%
%TO.N,Net-(J1-CC2)*%
X86500000Y-70175000D03*
%TD*%
%TO.P,R1,2*%
%TO.N,Net-(U1-ILIM{slash}VSET)*%
X83500000Y-65350000D03*
%TO.P,R1,1*%
%TO.N,GND*%
X83500000Y-67000000D03*
%TD*%
D12*
%TO.P,R3,1*%
%TO.N,GND*%
X95325000Y-71500000D03*
%TO.P,R3,2*%
%TO.N,Net-(U1-{slash}CE)*%
X93675000Y-71500000D03*
%TD*%
D13*
%TO.P,C8,1*%
%TO.N,+5V*%
X102890000Y-67000000D03*
%TO.P,C8,2*%
%TO.N,GND*%
X103850000Y-67000000D03*
%TD*%
D14*
%TO.P,J1,A1,GND*%
%TO.N,GND*%
X85875000Y-73400000D03*
D15*
X85875000Y-73900000D03*
D14*
X85875000Y-80500000D03*
D15*
%TO.P,J1,A4,VBUS*%
%TO.N,Net-(D1-A)*%
X85875000Y-75700000D03*
%TO.P,J1,A5,CC1*%
%TO.N,Net-(J1-CC1)*%
X85875000Y-76200000D03*
%TO.P,J1,A6*%
%TO.N,N/C*%
X85875000Y-76700000D03*
%TO.P,J1,A7*%
X85875000Y-77200000D03*
%TO.P,J1,A8*%
X85875000Y-77700000D03*
%TO.P,J1,A9,VBUS*%
%TO.N,Net-(D1-A)*%
X85875000Y-78200000D03*
%TO.P,J1,A12,GND*%
%TO.N,GND*%
X85875000Y-80000000D03*
%TO.P,J1,B1,GND*%
X84625000Y-79950000D03*
%TO.P,J1,B4,VBUS*%
%TO.N,Net-(D1-A)*%
X84625000Y-78450000D03*
%TO.P,J1,B5,CC2*%
%TO.N,Net-(J1-CC2)*%
X84625000Y-77950000D03*
%TO.P,J1,B6*%
%TO.N,N/C*%
X84625000Y-77450000D03*
%TO.P,J1,B7*%
X84625000Y-76450000D03*
%TO.P,J1,B8*%
X84625000Y-75950000D03*
%TO.P,J1,B9,VBUS*%
%TO.N,Net-(D1-A)*%
X84625000Y-75450000D03*
%TO.P,J1,B12,GND*%
%TO.N,GND*%
X84625000Y-73950000D03*
D16*
%TO.P,J1,S1,SHIELD*%
%TO.N,unconnected-(J1-SHIELD-PadS1)*%
X85700000Y-72500000D03*
D17*
X82500000Y-72500000D03*
D16*
X85700000Y-81400000D03*
D17*
X82500000Y-81400000D03*
%TD*%
D13*
%TO.P,C3,1*%
%TO.N,+BATT*%
X93120000Y-73000000D03*
%TO.P,C3,2*%
%TO.N,GND*%
X94080000Y-73000000D03*
%TD*%
D18*
%TO.P,C6,1*%
%TO.N,+5V*%
X95310000Y-68650000D03*
%TO.P,C6,2*%
%TO.N,GND*%
X94350000Y-68650000D03*
%TD*%
D19*
%TO.P,L1,1,1*%
%TO.N,/SYS*%
X98912500Y-76150000D03*
%TO.P,L1,2,2*%
%TO.N,Net-(L1-Pad2)*%
X96787500Y-76150000D03*
%TD*%
D11*
%TO.P,R2,1*%
%TO.N,GND*%
X86500000Y-67000000D03*
%TO.P,R2,2*%
%TO.N,Net-(U1-ISET)*%
X86500000Y-65350000D03*
%TD*%
D12*
%TO.P,R9,1*%
%TO.N,GND*%
X102350000Y-68650000D03*
%TO.P,R9,2*%
%TO.N,Net-(U2-FB)*%
X100700000Y-68650000D03*
%TD*%
%TO.P,R10,1*%
%TO.N,GND*%
X91325000Y-70500000D03*
%TO.P,R10,2*%
%TO.N,Net-(U1-TS{slash}MR)*%
X89675000Y-70500000D03*
%TD*%
D11*
%TO.P,R7,1*%
%TO.N,GND*%
X102850000Y-78650000D03*
%TO.P,R7,2*%
%TO.N,Net-(U2-LBI)*%
X102850000Y-77000000D03*
%TD*%
D20*
%TO.P,D1,1,K*%
%TO.N,VBUS*%
X89000000Y-76600000D03*
%TO.P,D1,2,A*%
%TO.N,Net-(D1-A)*%
X89000000Y-79400000D03*
%TD*%
D21*
%TO.P,J2,1,Pin_1*%
%TO.N,+BATT*%
X94000000Y-80000000D03*
D22*
%TO.P,J2,2,Pin_2*%
%TO.N,GND*%
X96500000Y-80000000D03*
%TD*%
D23*
%TO.P,U2,1,VOUT*%
%TO.N,+5V*%
X96925000Y-71150000D03*
%TO.P,U2,2,NC*%
%TO.N,unconnected-(U2-NC-Pad2)*%
X96925000Y-71800000D03*
%TO.P,U2,3,SW*%
%TO.N,Net-(L1-Pad2)*%
X96925000Y-72450000D03*
%TO.P,U2,4,SW*%
X96925000Y-73100000D03*
D24*
%TO.P,U2,5,PGND*%
%TO.N,GND*%
X97912500Y-74087500D03*
%TO.P,U2,6,PGND*%
X98562500Y-74087500D03*
%TO.P,U2,7,PGND*%
X99212500Y-74087500D03*
%TO.P,U2,8,VBAT*%
%TO.N,/SYS*%
X99862500Y-74087500D03*
D23*
%TO.P,U2,9,LBI*%
%TO.N,Net-(U2-LBI)*%
X100850000Y-73100000D03*
%TO.P,U2,10,SYNC*%
%TO.N,GND*%
X100850000Y-72450000D03*
%TO.P,U2,11,EN*%
%TO.N,/SYS*%
X100850000Y-71800000D03*
%TO.P,U2,12,LBO*%
%TO.N,unconnected-(U2-LBO-Pad12)*%
X100850000Y-71150000D03*
D24*
%TO.P,U2,13,GND*%
%TO.N,GND*%
X99862500Y-70162500D03*
%TO.P,U2,14,FB*%
%TO.N,Net-(U2-FB)*%
X99212500Y-70162500D03*
%TO.P,U2,15,VOUT*%
%TO.N,+5V*%
X98562500Y-70162500D03*
%TO.P,U2,16,VOUT*%
X97912500Y-70162500D03*
D25*
%TO.P,U2,17,PAD*%
%TO.N,unconnected-(U2-PAD-Pad17)*%
X97787500Y-71025000D03*
X97787500Y-72125000D03*
X97787500Y-73225000D03*
X98887500Y-71025000D03*
X98887500Y-72125000D03*
D26*
X98887500Y-72125000D03*
D25*
X98887500Y-73225000D03*
X99987500Y-71025000D03*
X99987500Y-72125000D03*
X99987500Y-73225000D03*
%TD*%
D27*
%TO.P,U1,10,IN*%
%TO.N,VBUS*%
X89675000Y-73500000D03*
%TO.P,U1,1,SYS*%
%TO.N,/SYS*%
X91935600Y-73500000D03*
%TO.P,U1,5,GND*%
%TO.N,GND*%
X91935600Y-71899800D03*
%TO.P,U1,6,TS/MR*%
%TO.N,Net-(U1-TS{slash}MR)*%
X89675000Y-71899800D03*
%TO.P,U1,2,BAT*%
%TO.N,+BATT*%
X91935600Y-73099950D03*
%TO.P,U1,3,STAT2*%
%TO.N,unconnected-(U1-STAT2-Pad3)*%
X91935600Y-72699900D03*
%TO.P,U1,4,/CE*%
%TO.N,Net-(U1-{slash}CE)*%
X91935600Y-72299850D03*
%TO.P,U1,7,ILIM/VSET*%
%TO.N,Net-(U1-ILIM{slash}VSET)*%
X89675000Y-72299850D03*
%TO.P,U1,8,ISET*%
%TO.N,Net-(U1-ISET)*%
X89675000Y-72699900D03*
%TO.P,U1,9,STAT1*%
%TO.N,unconnected-(U1-STAT1-Pad9)*%
X89675000Y-73099950D03*
D28*
%TO.P,U1,11,EPAD*%
%TO.N,unconnected-(U1-EPAD-Pad11)*%
X90805300Y-72699900D03*
%TD*%
D18*
%TO.P,C7,1*%
%TO.N,+5V*%
X95310000Y-67150000D03*
%TO.P,C7,2*%
%TO.N,GND*%
X94350000Y-67150000D03*
%TD*%
D12*
%TO.P,R8,1*%
%TO.N,Net-(U2-FB)*%
X99175000Y-68650000D03*
%TO.P,R8,2*%
%TO.N,+5V*%
X97525000Y-68650000D03*
%TD*%
D11*
%TO.P,R6,1*%
%TO.N,Net-(U2-LBI)*%
X102850000Y-75300000D03*
%TO.P,R6,2*%
%TO.N,/SYS*%
X102850000Y-73650000D03*
%TD*%
D29*
%TO.P,J3,1,VBUS*%
%TO.N,+5V*%
X101400000Y-65200000D03*
%TO.P,J3,2,D-*%
%TO.N,unconnected-(J3-D--Pad2)*%
X100600000Y-65200000D03*
%TO.P,J3,3,D+*%
%TO.N,unconnected-(J3-D+-Pad3)*%
X99800000Y-65200000D03*
%TO.P,J3,4,ID*%
%TO.N,unconnected-(J3-ID-Pad4)*%
X99000000Y-65200000D03*
%TO.P,J3,5,GND*%
%TO.N,GND*%
X98200000Y-65200000D03*
D30*
%TO.P,J3,6,Shield*%
%TO.N,unconnected-(J3-Shield-Pad6)*%
X104250000Y-65100000D03*
X104250000Y-59650000D03*
X95350000Y-65100000D03*
X95350000Y-59650000D03*
%TD*%
D18*
%TO.P,C2,1*%
%TO.N,/SYS*%
X91980000Y-75000000D03*
%TO.P,C2,2*%
%TO.N,GND*%
X91020000Y-75000000D03*
%TD*%
D13*
%TO.P,C5,1*%
%TO.N,/SYS*%
X102390000Y-72150000D03*
%TO.P,C5,2*%
%TO.N,GND*%
X103350000Y-72150000D03*
%TD*%
%TO.P,C1,1*%
%TO.N,VBUS*%
X89195000Y-75000000D03*
%TO.P,C1,2*%
%TO.N,GND*%
X90155000Y-75000000D03*
%TD*%
%TO.P,C4,1*%
%TO.N,/SYS*%
X102390000Y-71150000D03*
%TO.P,C4,2*%
%TO.N,GND*%
X103350000Y-71150000D03*
%TD*%
D31*
%TO.N,GND*%
X90600000Y-75900000D03*
X85300000Y-79600000D03*
X85300000Y-74300000D03*
X97900000Y-67100000D03*
X94350000Y-67900000D03*
X92500000Y-70500000D03*
X95000000Y-73000000D03*
X101250000Y-69750000D03*
X100601000Y-76701000D03*
X85000000Y-68000000D03*
%TO.N,Net-(J1-CC2)*%
X85500000Y-71000000D03*
X83600000Y-76942184D03*
%TO.N,GND*%
X98900000Y-75000000D03*
X101600000Y-73700000D03*
%TO.N,/SYS*%
X92900000Y-75100000D03*
X97862500Y-75100000D03*
%TO.N,Net-(U2-LBI)*%
X101100000Y-75950000D03*
X100850000Y-74050000D03*
%TD*%
D32*
%TO.N,Net-(L1-Pad2)*%
X96787500Y-73412500D02*
X96800000Y-73400000D01*
X96787500Y-76150000D02*
X96787500Y-73412500D01*
%TO.N,+5V*%
X94445155Y-69699999D02*
X93299999Y-69699999D01*
X93299999Y-69699999D02*
X92800000Y-69200000D01*
X95310000Y-68650000D02*
X95310000Y-68835154D01*
X95310000Y-68835154D02*
X94445155Y-69699999D01*
%TO.N,+BATT*%
X95600000Y-81600000D02*
X100800000Y-81600000D01*
X94000000Y-80000000D02*
X95600000Y-81600000D01*
%TO.N,VBUS*%
X89997800Y-77597800D02*
X89997800Y-80402200D01*
X89997800Y-80402200D02*
X89000000Y-81400000D01*
X89000000Y-76600000D02*
X89997800Y-77597800D01*
%TO.N,Net-(D1-A)*%
X87600000Y-79400000D02*
X86500000Y-78300000D01*
X89000000Y-79400000D02*
X87600000Y-79400000D01*
D33*
%TO.N,GND*%
X101600000Y-72890178D02*
X101600000Y-73700000D01*
X101159822Y-72450000D02*
X101600000Y-72890178D01*
X100850000Y-72450000D02*
X101159822Y-72450000D01*
D32*
%TO.N,+5V*%
X97525000Y-70075000D02*
X97300000Y-70300000D01*
X97525000Y-68650000D02*
X97525000Y-70075000D01*
%TO.N,GND*%
X85525000Y-68525000D02*
X86500000Y-68525000D01*
X85000000Y-68000000D02*
X85525000Y-68525000D01*
X84475000Y-68525000D02*
X83500000Y-68525000D01*
X86000000Y-67000000D02*
X86500000Y-67000000D01*
X85000000Y-68000000D02*
X84475000Y-68525000D01*
X84000000Y-67000000D02*
X83500000Y-67000000D01*
X85000000Y-68000000D02*
X86000000Y-67000000D01*
X85000000Y-68000000D02*
X84000000Y-67000000D01*
D34*
%TO.N,/SYS*%
X91935600Y-74955600D02*
X91980000Y-75000000D01*
X91935600Y-73500000D02*
X91935600Y-74955600D01*
D32*
%TO.N,GND*%
X103850000Y-67450000D02*
X102650000Y-68650000D01*
X103850000Y-67150000D02*
X103850000Y-67450000D01*
X102650000Y-68650000D02*
X102350000Y-68650000D01*
D33*
%TO.N,Net-(U2-LBI)*%
X101100000Y-75950000D02*
X101650000Y-75950000D01*
X102300000Y-75300000D02*
X102850000Y-75300000D01*
X101650000Y-75950000D02*
X102300000Y-75300000D01*
%TO.N,unconnected-(J3-Shield-Pad6)*%
X104250000Y-59650000D02*
X104250000Y-65100000D01*
X95350000Y-59650000D02*
X104250000Y-59650000D01*
X95350000Y-65100000D02*
X95350000Y-59650000D01*
D32*
%TO.N,GND*%
X90155000Y-75455000D02*
X90155000Y-75000000D01*
X91020000Y-75480000D02*
X91020000Y-75000000D01*
X90600000Y-75900000D02*
X90155000Y-75455000D01*
X90600000Y-75900000D02*
X91020000Y-75480000D01*
D33*
X85300000Y-79600000D02*
X85475000Y-79600000D01*
X85875000Y-80500000D02*
X85875000Y-80000000D01*
X85475000Y-79600000D02*
X85875000Y-80000000D01*
X84975000Y-79600000D02*
X85300000Y-79600000D01*
X84625000Y-79950000D02*
X84975000Y-79600000D01*
X85300000Y-74300000D02*
X85475000Y-74300000D01*
X85875000Y-73900000D02*
X85875000Y-73400000D01*
X85475000Y-74300000D02*
X85875000Y-73900000D01*
X84975000Y-74300000D02*
X85300000Y-74300000D01*
X84625000Y-73950000D02*
X84975000Y-74300000D01*
D32*
X98200000Y-66800000D02*
X97900000Y-67100000D01*
X98200000Y-65200000D02*
X98200000Y-66800000D01*
X94350000Y-67900000D02*
X94350000Y-68650000D01*
X94350000Y-67800000D02*
X94350000Y-67900000D01*
X94350000Y-67150000D02*
X94350000Y-67800000D01*
X91325000Y-70500000D02*
X92500000Y-70500000D01*
X95325000Y-72675000D02*
X95000000Y-73000000D01*
X95325000Y-71500000D02*
X95325000Y-72675000D01*
X94080000Y-73000000D02*
X95000000Y-73000000D01*
X101250000Y-69750000D02*
X102350000Y-68650000D01*
D33*
X100850000Y-72450000D02*
X101164348Y-72450000D01*
D32*
X102550000Y-78650000D02*
X100601000Y-76701000D01*
X102850000Y-78650000D02*
X102550000Y-78650000D01*
D34*
%TO.N,Net-(U1-ISET)*%
X89675000Y-72699900D02*
X89043800Y-72699900D01*
D33*
X88500000Y-72225700D02*
X88974200Y-72699900D01*
X88974200Y-72699900D02*
X89043800Y-72699900D01*
X88500000Y-67350000D02*
X88500000Y-72225700D01*
X86500000Y-65350000D02*
X88500000Y-67350000D01*
D32*
%TO.N,VBUS*%
X89000000Y-75195000D02*
X89195000Y-75000000D01*
X89000000Y-76600000D02*
X89000000Y-75195000D01*
D33*
%TO.N,Net-(J1-CC2)*%
X84234202Y-77950000D02*
X84625000Y-77950000D01*
X83600000Y-77315798D02*
X84234202Y-77950000D01*
X83600000Y-76942184D02*
X83600000Y-77315798D01*
%TO.N,unconnected-(J1-SHIELD-PadS1)*%
X82500000Y-72500000D02*
X82500000Y-81400000D01*
X85700000Y-72500000D02*
X82500000Y-72500000D01*
%TO.N,Net-(J1-CC1)*%
X87000000Y-72202570D02*
X87000000Y-76000000D01*
X86521430Y-71724000D02*
X87000000Y-72202570D01*
X85224000Y-71724000D02*
X86521430Y-71724000D01*
X87000000Y-76000000D02*
X86800000Y-76200000D01*
X86800000Y-76200000D02*
X85875000Y-76200000D01*
X83500000Y-70000000D02*
X85224000Y-71724000D01*
X83500000Y-70175000D02*
X83500000Y-70000000D01*
%TO.N,Net-(U1-ILIM{slash}VSET)*%
X86988064Y-64649000D02*
X88974000Y-66634936D01*
X83500000Y-65350000D02*
X84201000Y-64649000D01*
X84201000Y-64649000D02*
X86988064Y-64649000D01*
D32*
%TO.N,+BATT*%
X94000000Y-75137925D02*
X93120000Y-74257925D01*
X94000000Y-80000000D02*
X94000000Y-75137925D01*
D33*
%TO.N,Net-(J1-CC2)*%
X86325000Y-70175000D02*
X85500000Y-71000000D01*
X86500000Y-70175000D02*
X86325000Y-70175000D01*
D32*
%TO.N,GND*%
X99862500Y-70162500D02*
X100837500Y-70162500D01*
D33*
X103850000Y-67000000D02*
X103850000Y-67150000D01*
D32*
X103350000Y-71150000D02*
X103350000Y-72150000D01*
X100837500Y-70162500D02*
X101250000Y-69750000D01*
X103350000Y-71150000D02*
X103350000Y-69650000D01*
X103350000Y-69650000D02*
X102350000Y-68650000D01*
%TO.N,/SYS*%
X102390000Y-72150000D02*
X102390000Y-71150000D01*
X99862500Y-75200000D02*
X101300000Y-75200000D01*
X102850000Y-73650000D02*
X102390000Y-73190000D01*
X101300000Y-75200000D02*
X102850000Y-73650000D01*
X98912500Y-76150000D02*
X97862500Y-75100000D01*
X99862500Y-74087500D02*
X99862500Y-75200000D01*
X92900000Y-75100000D02*
X92080000Y-75100000D01*
X102390000Y-73190000D02*
X102390000Y-72150000D01*
X92080000Y-75100000D02*
X91980000Y-75000000D01*
X99862500Y-75200000D02*
X98912500Y-76150000D01*
%TO.N,+BATT*%
X93120000Y-73000000D02*
X93120000Y-74257925D01*
%TO.N,+5V*%
X99175000Y-67000000D02*
X100800000Y-67000000D01*
X95310000Y-68650000D02*
X95310000Y-67150000D01*
X101400000Y-66400000D02*
X101400000Y-65200000D01*
X102000000Y-67000000D02*
X101400000Y-66400000D01*
X97525000Y-68650000D02*
X99175000Y-67000000D01*
X100800000Y-67000000D02*
X101400000Y-66400000D01*
X97525000Y-68650000D02*
X95310000Y-68650000D01*
D34*
%TO.N,Net-(U1-{slash}CE)*%
X91935600Y-72299850D02*
X92400150Y-72299850D01*
X93200000Y-71500000D02*
X93675000Y-71500000D01*
X92400150Y-72299850D02*
X93200000Y-71500000D01*
D33*
%TO.N,Net-(U2-LBI)*%
X100850000Y-74050000D02*
X100850000Y-73100000D01*
X102850000Y-75300000D02*
X102850000Y-77000000D01*
%TO.N,Net-(U2-FB)*%
X99212500Y-70162500D02*
X99212500Y-68687500D01*
X99175000Y-68650000D02*
X100700000Y-68650000D01*
X99212500Y-68687500D02*
X99175000Y-68650000D01*
D34*
%TO.N,Net-(U1-TS{slash}MR)*%
X89675000Y-71899800D02*
X89675000Y-70500000D01*
D33*
%TO.N,unconnected-(J1-SHIELD-PadS1)*%
X82500000Y-81400000D02*
X85700000Y-81400000D01*
D32*
%TO.N,+5V*%
X102890000Y-67000000D02*
X102000000Y-67000000D01*
D34*
%TO.N,Net-(U1-ILIM{slash}VSET)*%
X89675000Y-72299850D02*
X89141250Y-72299850D01*
D33*
X88974000Y-72132600D02*
X89141250Y-72299850D01*
X88974000Y-66634936D02*
X88974000Y-72132600D01*
%TO.N,/SYS*%
X91980000Y-75000000D02*
X92000000Y-75000000D01*
%TD*%
%TA.AperFunction,Conductor*%
%TO.N,GND*%
G36*
X92390995Y-70336398D02*
G01*
X92713328Y-70465331D01*
X92760334Y-70504497D01*
X92775342Y-70563813D01*
X92770480Y-70588557D01*
X92322563Y-71932307D01*
X92286224Y-71981532D01*
X92228643Y-72000000D01*
X91747829Y-72000000D01*
X91689638Y-71981093D01*
X91653674Y-71931593D01*
X91653674Y-71870407D01*
X91656286Y-71863306D01*
X92215795Y-70504497D01*
X92262685Y-70390621D01*
X92302323Y-70344014D01*
X92361788Y-70329606D01*
X92390995Y-70336398D01*
G37*
%TD.AperFunction*%
%TD*%
%TA.AperFunction,Conductor*%
%TO.N,+BATT*%
G36*
X93244386Y-72729013D02*
G01*
X93288405Y-72771510D01*
X93300000Y-72818000D01*
X93300000Y-73288670D01*
X93281093Y-73346861D01*
X93231593Y-73382825D01*
X93189433Y-73386992D01*
X92481629Y-73303720D01*
X92426046Y-73278143D01*
X92410884Y-73260403D01*
X92408045Y-73256155D01*
X92408041Y-73256152D01*
X92342784Y-73212548D01*
X92342780Y-73212547D01*
X92285241Y-73201101D01*
X92285231Y-73201100D01*
X92285230Y-73201100D01*
X91699000Y-73201100D01*
X91684088Y-73196255D01*
X91668407Y-73196255D01*
X91655721Y-73187038D01*
X91640809Y-73182193D01*
X91631592Y-73169507D01*
X91618907Y-73160291D01*
X91614061Y-73145378D01*
X91604845Y-73132693D01*
X91600000Y-73102100D01*
X91600000Y-73097799D01*
X91618907Y-73039608D01*
X91668407Y-73003644D01*
X91698994Y-72998799D01*
X92285230Y-72998799D01*
X92342783Y-72987352D01*
X92408045Y-72943745D01*
X92449965Y-72881006D01*
X92498014Y-72843128D01*
X92515062Y-72838518D01*
X93183797Y-72720506D01*
X93244386Y-72729013D01*
G37*
%TD.AperFunction*%
%TD*%
%TA.AperFunction,Conductor*%
%TO.N,VBUS*%
G36*
X89943039Y-73419685D02*
G01*
X89988794Y-73472489D01*
X90000000Y-73524000D01*
X90000000Y-73581074D01*
X89994356Y-73618060D01*
X89515730Y-75149662D01*
X89498071Y-75176122D01*
X89481829Y-75203469D01*
X89478090Y-75206061D01*
X89476945Y-75207779D01*
X89452829Y-75223585D01*
X89368546Y-75265727D01*
X89299781Y-75278102D01*
X89238691Y-75254018D01*
X88970087Y-75052565D01*
X88928266Y-74996594D01*
X88923345Y-74926898D01*
X88926127Y-74916390D01*
X89372808Y-73487013D01*
X89411593Y-73428897D01*
X89475641Y-73400975D01*
X89491164Y-73400000D01*
X89876000Y-73400000D01*
X89943039Y-73419685D01*
G37*
%TD.AperFunction*%
%TD*%
%TA.AperFunction,Conductor*%
%TO.N,+5V*%
G36*
X98659191Y-69818907D02*
G01*
X98695155Y-69868407D01*
X98700000Y-69899000D01*
X98700000Y-70478700D01*
X98681093Y-70536891D01*
X98631593Y-70572855D01*
X98601000Y-70577700D01*
X97518072Y-70577700D01*
X97518065Y-70577701D01*
X97460517Y-70589147D01*
X97460515Y-70589148D01*
X97395258Y-70632752D01*
X97395252Y-70632758D01*
X97351648Y-70698015D01*
X97351647Y-70698019D01*
X97340201Y-70755558D01*
X97340200Y-70755570D01*
X97340200Y-71201000D01*
X97321293Y-71259191D01*
X97271793Y-71295155D01*
X97241200Y-71300000D01*
X96599000Y-71300000D01*
X96584088Y-71295155D01*
X96568407Y-71295155D01*
X96555721Y-71285938D01*
X96540809Y-71281093D01*
X96531592Y-71268407D01*
X96518907Y-71259191D01*
X96514061Y-71244278D01*
X96504845Y-71231593D01*
X96500000Y-71201000D01*
X96500000Y-71025654D01*
X96512458Y-70977575D01*
X96887707Y-70302127D01*
X96909622Y-70275211D01*
X97186644Y-70036508D01*
X97216504Y-70018810D01*
X97783192Y-69806303D01*
X97817953Y-69800000D01*
X98601000Y-69800000D01*
X98659191Y-69818907D01*
G37*
%TD.AperFunction*%
%TD*%
%TA.AperFunction,Conductor*%
%TO.N,/SYS*%
G36*
X102559191Y-71518907D02*
G01*
X102595155Y-71568407D01*
X102600000Y-71599000D01*
X102600000Y-72001000D01*
X102581093Y-72059191D01*
X102531593Y-72095155D01*
X102501000Y-72100000D01*
X101306466Y-72100000D01*
X101266479Y-72091565D01*
X101241335Y-72080463D01*
X101241332Y-72080462D01*
X101217524Y-72077700D01*
X101217520Y-72077700D01*
X100599000Y-72077700D01*
X100540809Y-72058793D01*
X100504845Y-72009293D01*
X100500000Y-71978700D01*
X100500000Y-71621300D01*
X100518907Y-71563109D01*
X100568407Y-71527145D01*
X100599000Y-71522300D01*
X101217522Y-71522300D01*
X101217522Y-71522299D01*
X101241335Y-71519537D01*
X101263330Y-71509825D01*
X101266479Y-71508435D01*
X101306466Y-71500000D01*
X102501000Y-71500000D01*
X102559191Y-71518907D01*
G37*
%TD.AperFunction*%
%TD*%
%TA.AperFunction,Conductor*%
%TO.N,GND*%
G36*
X99359191Y-73718907D02*
G01*
X99395155Y-73768407D01*
X99400000Y-73799000D01*
X99400000Y-74482047D01*
X99393697Y-74516808D01*
X99124090Y-75235761D01*
X99085954Y-75283608D01*
X99031393Y-75300000D01*
X98768607Y-75300000D01*
X98710416Y-75281093D01*
X98675910Y-75235761D01*
X98461447Y-74663859D01*
X98461447Y-74663858D01*
X98225000Y-74500000D01*
X97799000Y-74500000D01*
X97740809Y-74481093D01*
X97704845Y-74431593D01*
X97700000Y-74401000D01*
X97700000Y-73799000D01*
X97718907Y-73740809D01*
X97768407Y-73704845D01*
X97799000Y-73700000D01*
X99301000Y-73700000D01*
X99359191Y-73718907D01*
G37*
%TD.AperFunction*%
%TD*%
%TA.AperFunction,Conductor*%
%TO.N,Net-(D1-A)*%
G36*
X86413805Y-75488757D02*
G01*
X86469061Y-75515031D01*
X86498321Y-75568767D01*
X86500000Y-75586925D01*
X86500000Y-75803700D01*
X86495155Y-75818611D01*
X86495155Y-75834293D01*
X86485938Y-75846978D01*
X86481093Y-75861891D01*
X86468407Y-75871107D01*
X86459191Y-75883793D01*
X86444278Y-75888638D01*
X86431593Y-75897855D01*
X86401000Y-75902700D01*
X86332524Y-75902700D01*
X86294640Y-75895165D01*
X86288871Y-75892775D01*
X86288869Y-75892774D01*
X86288865Y-75892773D01*
X86213099Y-75877701D01*
X86213090Y-75877700D01*
X86213089Y-75877700D01*
X86213087Y-75877700D01*
X85536914Y-75877700D01*
X85536907Y-75877701D01*
X85461132Y-75892773D01*
X85461129Y-75892774D01*
X85375198Y-75950190D01*
X85368299Y-75957090D01*
X85366127Y-75954918D01*
X85330561Y-75982955D01*
X85269423Y-75985355D01*
X85218550Y-75951361D01*
X85197375Y-75893956D01*
X85197299Y-75890073D01*
X85197299Y-75861914D01*
X85197298Y-75861907D01*
X85194329Y-75846978D01*
X85182226Y-75786131D01*
X85124806Y-75700194D01*
X85123670Y-75699435D01*
X85038871Y-75642775D01*
X85038869Y-75642774D01*
X85038866Y-75642773D01*
X85038865Y-75642773D01*
X84963099Y-75627701D01*
X84963090Y-75627700D01*
X84963089Y-75627700D01*
X84963087Y-75627700D01*
X84286914Y-75627700D01*
X84286907Y-75627701D01*
X84211132Y-75642773D01*
X84211129Y-75642774D01*
X84125198Y-75700190D01*
X84125192Y-75700196D01*
X84067775Y-75786128D01*
X84067773Y-75786134D01*
X84052701Y-75861901D01*
X84052700Y-75861911D01*
X84052700Y-76038085D01*
X84052701Y-76038092D01*
X84067773Y-76113867D01*
X84067773Y-76113868D01*
X84067774Y-76113869D01*
X84088574Y-76144999D01*
X84105182Y-76203886D01*
X84088574Y-76254999D01*
X84067776Y-76286125D01*
X84067773Y-76286134D01*
X84052701Y-76361901D01*
X84052700Y-76361911D01*
X84052700Y-76457845D01*
X84033793Y-76516036D01*
X83984293Y-76552000D01*
X83923107Y-76552000D01*
X83904200Y-76543581D01*
X83791954Y-76478775D01*
X83791956Y-76478775D01*
X83713842Y-76457845D01*
X83665471Y-76444884D01*
X83534529Y-76444884D01*
X83486158Y-76457845D01*
X83408044Y-76478775D01*
X83294655Y-76544241D01*
X83202057Y-76636839D01*
X83136591Y-76750228D01*
X83126446Y-76788092D01*
X83102700Y-76876713D01*
X83102700Y-77007655D01*
X83110330Y-77036131D01*
X83136591Y-77134139D01*
X83202057Y-77247528D01*
X83202059Y-77247530D01*
X83202061Y-77247533D01*
X83281467Y-77326939D01*
X83307088Y-77371317D01*
X83322959Y-77430548D01*
X83322960Y-77430550D01*
X83322961Y-77430552D01*
X83362101Y-77498345D01*
X84051655Y-78187899D01*
X84072279Y-78199806D01*
X84119446Y-78227038D01*
X84119447Y-78227038D01*
X84119448Y-78227039D01*
X84125467Y-78228651D01*
X84139711Y-78232468D01*
X84139713Y-78232468D01*
X84181303Y-78243613D01*
X84210676Y-78256922D01*
X84211131Y-78257226D01*
X84268741Y-78268685D01*
X84286900Y-78272298D01*
X84286901Y-78272298D01*
X84286911Y-78272300D01*
X84963088Y-78272299D01*
X85038869Y-78257226D01*
X85124806Y-78199806D01*
X85182226Y-78113869D01*
X85197300Y-78038089D01*
X85197299Y-78009927D01*
X85216205Y-77951739D01*
X85265703Y-77915773D01*
X85326889Y-77915771D01*
X85366592Y-77944616D01*
X85368299Y-77942910D01*
X85375191Y-77949802D01*
X85375194Y-77949806D01*
X85461131Y-78007226D01*
X85518741Y-78018685D01*
X85536900Y-78022298D01*
X85536901Y-78022298D01*
X85536911Y-78022300D01*
X86213088Y-78022299D01*
X86288869Y-78007226D01*
X86346001Y-77969052D01*
X86404887Y-77952445D01*
X86462291Y-77973623D01*
X86496283Y-78024497D01*
X86500000Y-78051369D01*
X86500000Y-78312604D01*
X86481093Y-78370795D01*
X86431593Y-78406759D01*
X86413279Y-78410840D01*
X84145427Y-78694321D01*
X84085341Y-78682777D01*
X84066251Y-78669063D01*
X82932103Y-77629427D01*
X82901984Y-77576169D01*
X82900000Y-77556449D01*
X82900000Y-76541008D01*
X82918907Y-76482817D01*
X82928996Y-76471004D01*
X83538109Y-75861891D01*
X84165532Y-75234467D01*
X84220047Y-75206692D01*
X84248338Y-75206305D01*
X86413805Y-75488757D01*
G37*
%TD.AperFunction*%
%TD*%
%TA.AperFunction,Conductor*%
%TO.N,Net-(L1-Pad2)*%
G36*
X97299391Y-72218907D02*
G01*
X97335355Y-72268407D01*
X97340200Y-72299000D01*
X97340200Y-73283891D01*
X97340201Y-73400999D01*
X97321294Y-73459190D01*
X97271794Y-73495154D01*
X97241201Y-73500000D01*
X96599000Y-73500000D01*
X96540809Y-73481093D01*
X96504845Y-73431593D01*
X96500000Y-73401000D01*
X96500000Y-72299000D01*
X96518907Y-72240809D01*
X96568407Y-72204845D01*
X96599000Y-72200000D01*
X97241200Y-72200000D01*
X97299391Y-72218907D01*
G37*
%TD.AperFunction*%
%TD*%
M02*
