%TF.GenerationSoftware,KiCad,Pcbnew,9.0.7*%
%TF.CreationDate,2026-03-31T13:51:16-07:00*%
%TF.ProjectId,Power Management Board,506f7765-7220-44d6-916e-6167656d656e,rev?*%
%TF.SameCoordinates,Original*%
%TF.FileFunction,Paste,Top*%
%TF.FilePolarity,Positive*%
%FSLAX46Y46*%
G04 Gerber Fmt 4.6, Leading zero omitted, Abs format (unit mm)*
G04 Created by KiCad (PCBNEW 9.0.7) date 2026-03-31 13:51:16*
%MOMM*%
%LPD*%
G01*
G04 APERTURE LIST*
G04 Aperture macros list*
%AMRoundRect*
0 Rectangle with rounded corners*
0 $1 Rounding radius*
0 $2 $3 $4 $5 $6 $7 $8 $9 X,Y pos of 4 corners*
0 Add a 4 corners polygon primitive as box body*
4,1,4,$2,$3,$4,$5,$6,$7,$8,$9,$2,$3,0*
0 Add four circle primitives for the rounded corners*
1,1,$1+$1,$2,$3*
1,1,$1+$1,$4,$5*
1,1,$1+$1,$6,$7*
1,1,$1+$1,$8,$9*
0 Add four rect primitives between the rounded corners*
20,1,$1+$1,$2,$3,$4,$5,0*
20,1,$1+$1,$4,$5,$6,$7,0*
20,1,$1+$1,$6,$7,$8,$9,0*
20,1,$1+$1,$8,$9,$2,$3,0*%
G04 Aperture macros list end*
%ADD10RoundRect,0.200000X0.275000X-0.200000X0.275000X0.200000X-0.275000X0.200000X-0.275000X-0.200000X0*%
%ADD11RoundRect,0.200000X0.200000X0.275000X-0.200000X0.275000X-0.200000X-0.275000X0.200000X-0.275000X0*%
%ADD12RoundRect,0.140000X-0.140000X-0.170000X0.140000X-0.170000X0.140000X0.170000X-0.140000X0.170000X0*%
%ADD13RoundRect,0.075000X-0.300000X0.075000X-0.300000X-0.075000X0.300000X-0.075000X0.300000X0.075000X0*%
%ADD14RoundRect,0.062500X-0.312500X0.062500X-0.312500X-0.062500X0.312500X-0.062500X0.312500X0.062500X0*%
%ADD15RoundRect,0.140000X0.140000X0.170000X-0.140000X0.170000X-0.140000X-0.170000X0.140000X-0.170000X0*%
%ADD16RoundRect,0.218750X0.218750X0.381250X-0.218750X0.381250X-0.218750X-0.381250X0.218750X-0.381250X0*%
%ADD17RoundRect,0.250000X-0.300000X0.300000X-0.300000X-0.300000X0.300000X-0.300000X0.300000X0.300000X0*%
%ADD18RoundRect,0.160000X-0.160000X-0.160000X0.160000X-0.160000X0.160000X0.160000X-0.160000X0.160000X0*%
%ADD19RoundRect,0.087500X-0.325000X-0.087500X0.325000X-0.087500X0.325000X0.087500X-0.325000X0.087500X0*%
%ADD20RoundRect,0.087500X-0.087500X-0.325000X0.087500X-0.325000X0.087500X0.325000X-0.087500X0.325000X0*%
%ADD21R,0.660400X0.203200*%
%ADD22R,0.990600X1.600200*%
%ADD23R,0.500000X2.000000*%
%ADD24R,2.000000X1.700000*%
G04 APERTURE END LIST*
D10*
%TO.C,R5*%
X83500000Y-68525000D03*
X83500000Y-70175000D03*
%TD*%
%TO.C,R4*%
X86500000Y-68525000D03*
X86500000Y-70175000D03*
%TD*%
%TO.C,R1*%
X83500000Y-65350000D03*
X83500000Y-67000000D03*
%TD*%
D11*
%TO.C,R3*%
X95325000Y-71500000D03*
X93675000Y-71500000D03*
%TD*%
D12*
%TO.C,C8*%
X102890000Y-67000000D03*
X103850000Y-67000000D03*
%TD*%
D13*
%TO.C,J1*%
X85875000Y-73400000D03*
D14*
X85875000Y-73900000D03*
D13*
X85875000Y-80500000D03*
D14*
X85875000Y-75700000D03*
X85875000Y-76200000D03*
X85875000Y-76700000D03*
X85875000Y-77200000D03*
X85875000Y-77700000D03*
X85875000Y-78200000D03*
X85875000Y-80000000D03*
X84625000Y-79950000D03*
X84625000Y-78450000D03*
X84625000Y-77950000D03*
X84625000Y-77450000D03*
X84625000Y-76450000D03*
X84625000Y-75950000D03*
X84625000Y-75450000D03*
X84625000Y-73950000D03*
%TD*%
D12*
%TO.C,C3*%
X93120000Y-73000000D03*
X94080000Y-73000000D03*
%TD*%
D15*
%TO.C,C6*%
X95310000Y-68650000D03*
X94350000Y-68650000D03*
%TD*%
D16*
%TO.C,L1*%
X98912500Y-76150000D03*
X96787500Y-76150000D03*
%TD*%
D10*
%TO.C,R2*%
X86500000Y-67000000D03*
X86500000Y-65350000D03*
%TD*%
D11*
%TO.C,R9*%
X102350000Y-68650000D03*
X100700000Y-68650000D03*
%TD*%
%TO.C,R10*%
X91325000Y-70500000D03*
X89675000Y-70500000D03*
%TD*%
D10*
%TO.C,R7*%
X102850000Y-78650000D03*
X102850000Y-77000000D03*
%TD*%
D17*
%TO.C,D1*%
X89000000Y-76600000D03*
X89000000Y-79400000D03*
%TD*%
D18*
%TO.C,U2*%
X97987500Y-71225000D03*
X97987500Y-72125000D03*
X97987500Y-73025000D03*
X98887500Y-71225000D03*
X98887500Y-72125000D03*
X98887500Y-73025000D03*
X99787500Y-71225000D03*
X99787500Y-72125000D03*
X99787500Y-73025000D03*
D19*
X96925000Y-71150000D03*
X96925000Y-71800000D03*
X96925000Y-72450000D03*
X96925000Y-73100000D03*
D20*
X97912500Y-74087500D03*
X98562500Y-74087500D03*
X99212500Y-74087500D03*
X99862500Y-74087500D03*
D19*
X100850000Y-73100000D03*
X100850000Y-72450000D03*
X100850000Y-71800000D03*
X100850000Y-71150000D03*
D20*
X99862500Y-70162500D03*
X99212500Y-70162500D03*
X98562500Y-70162500D03*
X97912500Y-70162500D03*
%TD*%
D21*
%TO.C,U1*%
X89675000Y-73500000D03*
X91935600Y-73500000D03*
X91935600Y-71899800D03*
X89675000Y-71899800D03*
X91935600Y-73099950D03*
X91935600Y-72699900D03*
X91935600Y-72299850D03*
X89675000Y-72299850D03*
X89675000Y-72699900D03*
X89675000Y-73099950D03*
D22*
X90805300Y-72699900D03*
%TD*%
D15*
%TO.C,C7*%
X95310000Y-67150000D03*
X94350000Y-67150000D03*
%TD*%
D11*
%TO.C,R8*%
X99175000Y-68650000D03*
X97525000Y-68650000D03*
%TD*%
D10*
%TO.C,R6*%
X102850000Y-75300000D03*
X102850000Y-73650000D03*
%TD*%
D23*
%TO.C,J3*%
X101400000Y-65200000D03*
X100600000Y-65200000D03*
X99800000Y-65200000D03*
X99000000Y-65200000D03*
X98200000Y-65200000D03*
D24*
X104250000Y-65100000D03*
X104250000Y-59650000D03*
X95350000Y-65100000D03*
X95350000Y-59650000D03*
%TD*%
D15*
%TO.C,C2*%
X91980000Y-75000000D03*
X91020000Y-75000000D03*
%TD*%
D12*
%TO.C,C5*%
X102390000Y-72150000D03*
X103350000Y-72150000D03*
%TD*%
%TO.C,C1*%
X89195000Y-75000000D03*
X90155000Y-75000000D03*
%TD*%
%TO.C,C4*%
X102390000Y-71150000D03*
X103350000Y-71150000D03*
%TD*%
M02*
